<svg width="14" height="15" viewBox="0 0 14 15" fill="none" xmlns="http://www.w3.org/2000/svg">
<g clip-path="url(#clip0)">
<path d="M5.91885 9.02486C6.73065 9.84838 7.7129 10.4842 8.79662 10.8876L10.2627 9.72097C10.3062 9.69103 10.3577 9.67501 10.4105 9.67501C10.4633 9.67501 10.5148 9.69103 10.5583 9.72097L13.2805 11.4749C13.3839 11.537 13.4713 11.6223 13.5361 11.7241C13.6008 11.8258 13.6409 11.9412 13.6534 12.0612C13.6658 12.1811 13.6502 12.3023 13.6078 12.4152C13.5653 12.528 13.4972 12.6295 13.4088 12.7115L12.1333 13.9715C11.9506 14.152 11.7261 14.2845 11.4798 14.3571C11.2335 14.4297 10.973 14.4402 10.7216 14.3876C8.21415 13.8698 5.90295 12.6569 4.05218 10.8876C2.24248 9.10079 0.990175 6.82719 0.447179 4.34263C0.393539 4.09516 0.404734 3.83803 0.479681 3.59615C0.554628 3.35428 0.690785 3.13586 0.874957 2.96208L2.19718 1.68652C2.279 1.60244 2.37879 1.53796 2.48906 1.4979C2.59933 1.45785 2.71724 1.44326 2.83395 1.45523C2.95066 1.4672 3.06315 1.50542 3.163 1.56703C3.26285 1.62863 3.34746 1.71203 3.41051 1.81097L5.22273 4.49819C5.25399 4.54039 5.27087 4.59151 5.27087 4.64402C5.27087 4.69654 5.25399 4.74766 5.22273 4.78986L4.02885 6.22486C4.44324 7.28689 5.08885 8.24335 5.91885 9.02486Z" fill="#ECDACC"/>
</g>
<defs>
<clipPath id="clip0">
<rect width="14" height="14" fill="white" transform="translate(0 0.998047)"/>
</clipPath>
</defs>
</svg>
