<svg width="14" height="15" viewBox="0 0 14 15" fill="none" xmlns="http://www.w3.org/2000/svg">
<g clip-path="url(#clip0)">
<path d="M7 0.998047C3.13306 0.998047 0 4.13111 0 7.99805C0 11.865 3.13306 14.998 7 14.998C10.8669 14.998 14 11.865 14 7.99805C14 4.13111 10.8669 0.998047 7 0.998047ZM9.6106 9.83272L9.04609 10.5384C9.00904 10.5847 8.96323 10.6233 8.91128 10.6519C8.85933 10.6805 8.80225 10.6986 8.74331 10.7051C8.68436 10.7117 8.6247 10.7066 8.56773 10.6901C8.51076 10.6735 8.4576 10.646 8.41129 10.6089L6.52016 9.20555C6.38802 9.09975 6.28137 8.9656 6.20808 8.81302C6.13479 8.66044 6.09675 8.49332 6.09677 8.32405V3.93353C6.09677 3.81376 6.14435 3.69889 6.22905 3.61419C6.31374 3.5295 6.42861 3.48192 6.54839 3.48192H7.45161C7.57139 3.48192 7.68626 3.5295 7.77095 3.61419C7.85565 3.69889 7.90323 3.81376 7.90323 3.93353V7.99805L9.54032 9.19764C9.58666 9.23471 9.62524 9.28055 9.65385 9.33254C9.68246 9.38452 9.70055 9.44164 9.70708 9.50062C9.7136 9.5596 9.70844 9.61929 9.69189 9.67627C9.67534 9.73326 9.64771 9.78642 9.6106 9.83272Z" fill="#ECDACC"/>
</g>
<defs>
<clipPath id="clip0">
<rect width="14" height="14" fill="white" transform="translate(0 0.998047)"/>
</clipPath>
</defs>
</svg>
