<svg width="16" height="17" viewBox="0 0 16 17" fill="none" xmlns="http://www.w3.org/2000/svg">
<g clip-path="url(#clip0)">
<path d="M7.99988 0.998047C5.82511 0.998047 5.55407 1.00855 4.70297 1.04455C3.84836 1.08656 3.27029 1.21907 2.76022 1.4171C2.22639 1.61863 1.74293 1.93417 1.34355 2.34172C0.934866 2.74016 0.619154 3.22389 0.41893 3.75839C0.220906 4.26846 0.088389 4.84653 0.0463837 5.70114C0.00787893 6.55274 -0.00012207 6.82328 -0.00012207 8.99805C-0.00012207 11.1728 0.0103792 11.4439 0.0463837 12.295C0.088389 13.1471 0.220906 13.7276 0.41893 14.2377C0.620466 14.7715 0.936003 15.255 1.34355 15.6544C1.74199 16.0631 2.22572 16.3788 2.76022 16.579C3.27029 16.7745 3.85086 16.9095 4.70297 16.9515C5.55457 16.99 5.82511 16.998 7.99988 16.998C10.1747 16.998 10.4457 16.9875 11.2968 16.9515C12.1489 16.9095 12.7295 16.774 13.2395 16.579C13.7734 16.3775 14.2568 16.0619 14.6562 15.6544C15.0654 15.2564 15.3812 14.7725 15.5808 14.2377C15.7764 13.7276 15.9114 13.1471 15.9534 12.295C15.9919 11.4434 15.9999 11.1728 15.9999 8.99805C15.9999 6.82328 15.9894 6.55224 15.9534 5.70114C15.9114 4.84903 15.7759 4.26546 15.5808 3.75839C15.3793 3.22456 15.0638 2.7411 14.6562 2.34172C14.2582 1.93251 13.7743 1.61671 13.2395 1.4171C12.7295 1.21907 12.1489 1.08656 11.2968 1.04455C10.4452 1.00605 10.1747 0.998047 7.99988 0.998047ZM7.99988 2.43823C10.1356 2.43823 10.3907 2.44873 11.2348 2.48473C12.0134 2.52124 12.4374 2.65125 12.719 2.76127C13.067 2.88975 13.382 3.09423 13.6411 3.35984C13.9062 3.61779 14.11 3.93209 14.2372 4.27946C14.3472 4.56099 14.4772 4.98505 14.5137 5.76364C14.5497 6.60775 14.5602 6.86328 14.5602 8.99855C14.5602 11.1338 14.5497 11.3893 14.5107 12.2335C14.4687 13.0121 14.3387 13.4361 14.2292 13.7176C14.0776 14.0932 13.9086 14.3557 13.6296 14.6398C13.3697 14.9037 13.0549 15.1072 12.7075 15.2358C12.4294 15.3458 11.9994 15.4759 11.2178 15.5124C10.3692 15.5484 10.1191 15.5589 7.97788 15.5589C5.83661 15.5589 5.58708 15.5484 4.73747 15.5094C3.95887 15.4674 3.52932 15.3373 3.24778 15.2278C2.86774 15.0763 2.6072 14.9073 2.32817 14.6283C2.04663 14.3467 1.86761 14.0787 1.72959 13.7061C1.61758 13.4281 1.48956 12.998 1.44806 12.2165C1.41956 11.3778 1.40605 11.1178 1.40605 8.98655C1.40605 6.85628 1.41956 6.59575 1.44806 5.74664C1.48956 4.96504 1.61758 4.53599 1.72959 4.25695C1.86761 3.87641 2.04713 3.61637 2.32817 3.33484C2.6067 3.0563 2.86774 2.87628 3.24778 2.73526C3.52932 2.62575 3.94837 2.49573 4.72997 2.45673C5.57858 2.42623 5.82861 2.41522 7.96687 2.41522L7.99988 2.43823ZM7.99988 4.89203C7.46048 4.89184 6.92633 4.99793 6.42796 5.20426C5.92958 5.41059 5.47675 5.7131 5.09534 6.09451C4.71393 6.47592 4.41142 6.92875 4.20509 7.42713C3.99876 7.9255 3.89267 8.45965 3.89286 8.99905C3.89267 9.53844 3.99876 10.0726 4.20509 10.571C4.41142 11.0693 4.71393 11.5222 5.09534 11.9036C5.47675 12.285 5.92958 12.5875 6.42796 12.7938C6.92633 13.0002 7.46048 13.1063 7.99988 13.1061C8.53927 13.1063 9.07342 13.0002 9.5718 12.7938C10.0702 12.5875 10.523 12.285 10.9044 11.9036C11.2858 11.5222 11.5883 11.0693 11.7947 10.571C12.001 10.0726 12.1071 9.53844 12.1069 8.99905C12.1071 8.45965 12.001 7.9255 11.7947 7.42713C11.5883 6.92875 11.2858 6.47592 10.9044 6.09451C10.523 5.7131 10.0702 5.41059 9.5718 5.20426C9.07342 4.99793 8.53927 4.89184 7.99988 4.89203ZM7.99988 11.6659C6.52569 11.6659 5.33304 10.4732 5.33304 8.99905C5.33304 7.52486 6.52569 6.33221 7.99988 6.33221C9.47406 6.33221 10.6667 7.52486 10.6667 8.99905C10.6667 10.4732 9.47406 11.6659 7.99988 11.6659ZM13.2325 4.72801C13.2323 4.98288 13.1308 5.22721 12.9505 5.40734C12.7702 5.58746 12.5258 5.68863 12.2709 5.68863C12.1449 5.68863 12.0201 5.66381 11.9037 5.61559C11.7873 5.56736 11.6815 5.49668 11.5924 5.40757C11.5032 5.31846 11.4326 5.21267 11.3843 5.09624C11.3361 4.97982 11.3113 4.85503 11.3113 4.72901C11.3113 4.60299 11.3361 4.47821 11.3843 4.36178C11.4326 4.24536 11.5032 4.13957 11.5924 4.05046C11.6815 3.96135 11.7873 3.89067 11.9037 3.84244C12.0201 3.79421 12.1449 3.76939 12.2709 3.76939C12.7995 3.76939 13.2325 4.19945 13.2325 4.72801Z" fill="#ECDACC"/>
</g>
<defs>
<clipPath id="clip0">
<rect width="16" height="16" fill="white" transform="translate(-0.00012207 0.998047)"/>
</clipPath>
</defs>
</svg>
