<svg width="14" height="15" viewBox="0 0 14 15" fill="none" xmlns="http://www.w3.org/2000/svg">
<path d="M14 5.22365V10.923C14 11.5041 13.7777 12.0632 13.3786 12.4856C12.9795 12.908 12.434 13.1616 11.8538 13.1945L11.725 13.198H2.275C1.6939 13.1981 1.13482 12.9758 0.712438 12.5767C0.290057 12.1776 0.0363991 11.632 0.00350008 11.0518L0 10.923V5.22365L6.7564 8.76285C6.83156 8.80222 6.91515 8.82278 7 8.82278C7.08485 8.82278 7.16844 8.80222 7.2436 8.76285L14 5.22365ZM2.275 1.99805H11.725C12.2889 1.99798 12.8327 2.20734 13.251 2.58553C13.6693 2.96372 13.9322 3.48378 13.9888 4.04485L7 7.70585L0.0112 4.04485C0.0654664 3.50607 0.310135 3.00431 0.701225 2.62977C1.09231 2.25523 1.60418 2.03248 2.1448 2.00155L2.275 1.99805Z" fill="#ECDACC"/>
</svg>
