<svg width="642" height="642" viewBox="0 0 642 642" fill="none" xmlns="http://www.w3.org/2000/svg">
<path d="M79.0154 384.327L257.897 347.204L104.256 446.561C69.1385 469.49 64.7487 517.531 93.2821 547.01C122.913 576.49 171.2 571.031 194.246 537.184L294.113 385.418L256.8 563.388C248.02 603.786 279.846 642 320.451 642C362.154 642 392.882 603.786 384.103 563.388L346.79 385.418L446.656 537.184C469.703 572.122 517.99 576.49 547.62 548.102C577.251 518.622 571.764 470.582 536.646 447.653L384.103 348.296L562.985 385.418C603.59 394.153 642 362.49 642 322.092C642 280.602 603.59 250.031 562.985 258.765L384.103 295.888L536.646 196.531C571.764 173.602 576.154 125.561 546.523 96.0816C516.892 66.602 468.605 72.0612 445.559 107L345.692 258.765L383.005 80.7959C393.979 38.2143 363.251 0 321.549 0C279.846 0 249.118 38.2143 257.897 78.6122L295.21 256.582L195.344 103.724C172.297 68.7857 124.01 64.4184 94.3795 92.8061C64.7487 122.286 70.2359 170.327 105.354 193.255L257.897 292.612L79.0154 256.582C38.4103 247.847 0 278.418 0 319.908C0 361.398 38.4103 391.969 79.0154 384.327Z" fill="#F2E6DE"/>
</svg>
