<svg width="160" height="77" viewBox="0 0 160 77" fill="none" xmlns="http://www.w3.org/2000/svg">
<path fill-rule="evenodd" clip-rule="evenodd" d="M159.942 40.7258C159.771 41.2391 159.142 42.0376 155.656 44.0909C153.256 45.5167 151.199 46.7715 149.428 47.9122C143.942 58.6918 140.571 65.0227 139.256 67.247C135.256 73.806 131.999 77 129.142 77C128.399 77 126.685 76.7148 126.685 74.0342C126.685 69.4714 128.399 64.8516 131.828 60.3458C135.142 55.8971 140.228 51.3343 146.856 46.8856C147.542 45.5167 148.685 43.2924 150.171 40.1554C149.828 40.4406 149.485 40.7828 149.142 41.125C146.285 43.8057 143.942 45.1175 141.999 45.1175C140.856 45.1175 140.113 44.376 140.113 43.1213C139.771 43.3494 139.313 43.5775 138.856 43.8627C136.228 45.2886 134.342 46.03 133.142 46.03C130.799 46.03 129.485 44.7182 129.428 42.2657C129.085 42.4939 128.742 42.779 128.285 43.1213C125.999 44.8323 124.399 45.6308 123.313 45.6308C122.056 45.6308 121.256 44.9464 121.256 43.8057C121.256 43.6916 121.256 43.5775 121.256 43.4635C118.171 45.3456 115.942 46.2582 114.628 46.2582C113.142 46.2582 112.285 45.3456 112.285 43.6916C112.285 43.2353 112.342 42.779 112.456 42.3228C112.513 42.0376 112.628 41.6954 112.685 41.4102C112.056 41.8665 111.199 42.3798 110.056 43.0642H109.999C109.371 43.3494 108.799 43.6916 108.285 43.9768C107.771 44.262 107.199 44.6042 106.742 44.8323C106.228 45.1175 105.713 45.3456 105.199 45.5167C104.628 45.6878 104.056 45.7449 103.485 45.7449C102.913 45.6878 102.285 45.5738 101.771 45.2886C101.142 44.9464 100.742 44.319 100.742 43.6346C99.942 43.9197 99.0849 44.0909 98.2277 44.0909C97.3134 44.0909 96.3992 43.8627 95.5992 43.4635C93.8277 45.5738 91.8277 46.6574 89.7134 46.6574C88.742 46.6574 87.142 46.3152 86.7991 44.0338C86.2277 44.0338 85.5992 44.0338 85.0277 44.1479C84.8563 44.2049 84.6849 44.319 84.6277 44.5471C84.4563 46.7145 83.4849 48.5966 83.0277 50.6499C83.0277 50.7639 82.9706 50.821 82.9706 50.935C82.9134 51.0491 82.8563 51.1632 82.8563 51.2772C82.742 51.6765 82.5134 52.0187 82.4563 52.4179C81.4849 54.5282 81.0277 56.8096 80.3991 59.034C80.1134 59.8325 79.7706 60.631 79.3134 61.3154C79.0277 61.4865 78.742 61.5435 78.4563 61.5435C78.3991 61.2584 78.342 60.9732 78.342 60.688C78.342 60.5169 78.3991 60.3458 78.5134 60.2317C79.0849 59.1481 79.2563 57.8933 79.0849 56.6385C78.9134 56.1252 79.1992 55.6119 79.7134 55.4408H79.7706C79.942 55.3267 80.1134 55.1556 80.1706 54.9845C80.3992 54.2431 80.5706 53.5016 80.742 52.7031C81.142 49.6803 81.7706 46.6574 82.6277 43.7486C81.542 43.4064 80.342 43.2353 79.1992 43.2924C78.2849 43.2924 77.3706 43.1783 76.5134 43.0072C72.3991 45.6878 69.5992 46.9426 67.9991 46.9426C66.5134 46.9426 65.6563 46.03 65.6563 44.376C65.6563 43.7486 65.7706 43.0642 65.942 42.4939C65.2563 43.0642 64.5134 43.6916 63.5992 44.319C60.6277 46.4863 59.4849 46.7715 58.8563 46.7715C58.1706 46.8285 57.542 46.5434 57.142 45.973C57.0277 46.0871 56.8563 46.2011 56.6849 46.3152C54.5134 47.9692 52.6849 48.7677 51.1991 48.7677C48.9706 48.7677 47.7134 47.5129 47.7134 45.1745C47.7134 43.1213 49.1992 39.357 52.2277 33.7105C52.742 32.7409 53.2563 31.7713 53.7706 30.8017C50.9706 34.3949 47.8849 37.817 44.6277 41.011C39.6563 45.6878 36.0563 47.9692 33.5991 47.9692C31.1991 47.9692 29.8849 46.7715 29.8849 44.5471V44.4901C30.0563 42.779 30.5134 41.068 31.2563 39.471C31.9991 37.817 33.0277 35.8778 34.2277 33.6535C34.742 32.6839 35.2563 31.7143 35.7706 30.7447C32.9706 34.3379 29.8849 37.76 26.6277 40.9539C21.6563 45.6308 18.0563 47.9122 15.5991 47.9122C13.1991 47.9122 11.8849 46.7145 11.8849 44.4901C11.8849 42.8361 13.142 40.0414 15.7706 35.8778C17.8277 32.7409 19.7134 29.4899 21.4277 26.1819H21.1991C20.7991 26.1819 20.3991 26.2389 20.0563 26.2389C14.742 26.2389 9.65629 24.1857 5.88486 20.5354C1.99915 16.9422 -0.000854492 13.0639 -0.000854492 9.07141C-0.000854492 6.21966 0.913431 3.93827 2.68486 2.28425C4.39915 0.74431 6.68486 -0.0541789 8.97057 0.00285599C13.3706 0.00285599 17.4849 1.82797 21.142 5.36414C24.8563 9.07141 26.742 13.292 26.742 17.9118C26.6849 19.794 26.342 21.6761 25.7706 23.5012C28.7991 22.6457 30.9134 21.1628 32.0563 19.0525L32.1134 18.9385L32.1706 18.8814C32.342 18.7103 32.6277 18.5962 32.9134 18.5962C33.4277 18.5962 33.8849 18.9955 33.8849 19.5088C33.8849 19.5658 33.8849 19.5658 33.8849 19.6229C33.8849 20.4784 33.142 21.505 31.4277 22.8168C29.4849 24.2997 27.2563 25.3834 24.8563 25.8967C23.8849 28.1211 21.8277 31.7143 18.7991 36.5622C15.7706 41.4672 15.142 43.5775 15.142 44.4901C15.142 45.6878 15.6563 45.8019 16.1706 45.8019C17.8277 45.8019 21.7134 43.5775 30.9134 32.855C37.0277 25.6115 41.4277 19.7369 44.1706 15.3452C44.6277 14.6038 45.4277 14.0905 46.342 14.1475C47.0277 14.0905 47.5991 14.5468 47.6563 15.1741C47.6563 15.2312 47.6563 15.2882 47.6563 15.3452C47.6563 15.8015 47.3706 16.2578 46.7991 16.8852C46.342 17.3985 45.942 17.9118 45.6563 18.5392C44.5134 20.7065 43.3706 22.8739 42.2277 24.9271C41.0849 27.0374 39.942 29.2047 38.7991 31.315C37.2563 34.2238 35.9991 36.7904 35.0277 38.9007C34.1706 40.6688 33.542 42.5509 33.1991 44.4901C33.1991 45.6308 33.7134 45.7449 34.2277 45.7449C35.8849 45.7449 39.7706 43.5205 48.9706 32.7979C55.0849 25.5545 59.542 19.6799 62.2277 15.2882C62.6849 14.5468 63.4849 14.0334 64.3991 14.0905C65.0849 14.0334 65.6563 14.4897 65.7134 15.1171C65.7134 15.1741 65.7134 15.2312 65.7134 15.2882C65.7134 15.7445 65.4277 16.2008 64.8563 16.8282C64.3991 17.3415 63.9991 17.8548 63.7134 18.4822C62.5706 20.6495 61.4277 22.8168 60.2849 24.8701C59.142 26.9233 57.9991 29.0907 56.8563 31.258C52.0563 40.5547 51.0849 43.9197 51.0849 45.1175C51.0849 46.3722 51.542 46.3722 51.8849 46.3722C52.5134 46.3722 53.7134 46.03 55.8277 44.319C56.3991 43.8627 56.8563 43.4635 57.1991 43.1783C57.7134 42.0376 58.2849 40.8969 58.9134 39.7562C59.6563 38.5585 60.2849 37.2467 60.7991 35.9349C60.6849 35.9349 60.5706 35.9349 60.5134 35.9349C60.1706 35.9349 59.5992 35.7638 59.5992 34.566V34.0527L60.0563 33.8816C60.4563 33.7675 60.9134 33.6535 61.3706 33.6535C63.7134 33.6535 64.1134 34.7942 64.1134 35.4786C64.1134 36.4482 63.542 37.9311 62.2277 40.0984C61.5991 41.068 61.0849 42.0376 60.6277 43.0642C61.942 42.2657 63.142 41.3532 64.2849 40.3265C66.2849 38.6725 68.1134 36.9045 69.7706 34.9082L69.8277 34.8512C70.5706 34.1097 71.0849 33.7675 71.5992 33.7675C72.342 33.7105 73.0277 34.2808 73.0277 35.0223C73.0277 35.0793 73.0277 35.1364 73.0277 35.1934C72.9706 35.7067 72.7991 36.22 72.5134 36.6193C69.5992 40.9539 69.1992 42.4368 69.1992 42.9502C69.1992 43.6346 69.4277 43.6916 69.8277 43.6916C70.5134 43.6916 71.942 43.2924 74.8563 41.4672C74.742 40.9539 74.8563 40.4406 75.0849 40.0414C75.942 38.5014 77.1992 37.1896 78.6849 36.22C78.9706 35.9919 79.1992 35.6497 79.1992 35.2504C79.4277 33.0261 79.542 30.8017 79.7706 28.6344C79.8849 27.4937 80.1706 26.353 80.342 25.2123C80.4563 24.5849 80.5706 23.9575 80.742 23.3301C81.0849 22.0754 81.4849 20.8206 81.942 19.5658C82.8563 16.8852 84.0563 14.3186 85.542 11.8661C85.6563 11.695 85.8849 11.5809 86.0563 11.5239C87.0849 11.3528 88.1134 11.1817 89.142 11.0106C89.7706 10.8395 90.4563 10.9536 90.9706 11.4098C91.3134 11.5809 91.542 11.8661 91.6563 12.2654C91.8277 12.6646 92.0563 13.0639 92.342 13.349C92.1134 13.8623 91.8849 14.2616 91.6563 14.7179H91.4849C91.4277 14.2616 91.3706 13.8053 91.3134 13.292C91.3134 13.1779 91.3134 13.0639 91.3134 12.9498C91.142 12.7787 90.9706 12.6646 90.7991 12.4935C90.7991 12.7216 90.7991 12.8927 90.7991 13.1209C90.8563 13.349 90.9134 13.5772 90.9706 13.8053L90.742 13.9194C90.4563 13.5201 90.1706 13.0639 89.942 12.6076C89.8277 12.2654 89.6563 12.1513 89.3134 12.2083C88.2849 12.5505 87.2563 12.9498 86.2277 13.349C86.0563 13.4631 85.942 13.6342 85.8849 13.8053C85.3706 14.8319 84.9134 15.9156 84.5134 16.9422C84.2277 18.0259 83.9992 19.1666 83.7706 20.2503C84.4563 20.0791 85.0277 19.5658 85.1992 18.8814C85.2563 18.3681 85.2563 17.8548 85.3134 17.3415C85.3706 16.9993 85.4849 16.7141 85.542 16.4289C85.6563 15.9156 85.7706 15.4023 85.8849 14.889C86.0563 14.0905 87.0277 13.9764 87.6563 14.4327C87.9991 14.6608 88.3991 14.889 88.6849 15.1741C89.7134 16.1437 89.942 17.7407 89.1992 18.9955C89.142 19.0525 89.0277 19.1666 89.0277 19.2236C89.142 20.1362 88.5134 20.5925 87.942 21.1058C87.6563 21.3339 87.4849 21.6191 87.142 21.9043L86.342 20.9347C86.1706 21.6191 85.9991 22.1894 85.8277 22.7598L86.0563 22.8739C86.9706 21.9613 88.2849 21.6191 89.0277 20.4784C89.2563 20.1362 89.542 19.851 89.7706 19.5658C90.1134 19.0525 90.4563 18.5392 90.7991 18.0829C90.9706 17.8548 91.142 17.5696 91.3706 17.3415C92.1706 16.4289 93.0277 15.5734 93.8277 14.6608C94.5134 14.0905 95.4277 13.9764 96.2277 14.3186C96.742 14.6608 97.4849 14.8319 97.2563 15.6304C96.9706 15.8015 96.742 15.9156 96.4563 16.0297C96.342 16.0867 96.2277 16.0297 96.1706 15.9726C95.7134 15.2882 95.0277 15.8015 94.4563 15.6875C94.2849 15.7445 94.1706 15.8586 94.0563 16.0297C92.1134 18.8814 90.1706 21.7902 87.7706 24.3568C87.3134 24.813 86.8563 25.2693 86.4563 25.7826C86.0563 26.41 85.7706 27.0944 85.4277 27.7789C85.0849 28.4633 84.6277 29.0336 84.2849 29.7181C84.2277 29.8892 84.1706 30.0603 84.2849 30.2884C84.9706 31.4861 85.3706 32.7979 85.4849 34.1668C85.7706 36.7904 85.7134 39.414 85.3134 42.0376C85.8849 42.1517 86.3992 42.2087 86.9134 42.3798C87.0849 39.8703 88.342 37.3607 90.7991 34.8512C93.0849 32.5698 94.6849 31.4861 95.8277 31.4861C97.3706 31.4861 97.4277 32.5698 97.4277 32.7409C97.4277 32.969 97.3134 33.2542 97.142 33.4253C97.6563 33.4253 98.7991 33.6535 99.0277 35.4786V35.5356C98.9706 37.4178 98.3991 39.2429 97.4277 40.8969C97.942 41.2391 98.5706 41.4672 99.1992 41.4102C100.685 41.3532 102.056 40.7828 103.085 39.7562C103.313 39.5281 103.599 39.414 103.885 39.414C104.342 39.414 104.742 39.8132 104.742 40.2695V40.3265C104.685 40.8399 104.342 41.2961 103.885 41.5813C103.828 41.6383 103.828 41.6383 103.771 41.6954C103.828 41.8095 103.885 41.9235 103.999 42.0376C104.113 42.2087 104.228 42.4368 104.399 42.5509C104.513 42.6079 104.571 42.665 104.685 42.6079H105.028C105.713 42.4368 106.342 42.2087 106.971 41.8665C108.913 40.9539 110.742 39.7562 112.399 38.3874C113.885 37.1326 115.256 35.7067 116.456 34.1668L116.513 34.1097C117.256 33.3683 117.771 33.0261 118.285 33.0261C119.028 32.969 119.713 33.5394 119.713 34.2808C119.713 34.3379 119.713 34.3949 119.713 34.452C119.713 34.9653 119.485 35.4786 119.199 35.8778C116.285 40.2125 115.885 41.6954 115.885 42.2087C115.885 42.8931 116.113 42.9502 116.513 42.9502C117.313 42.9502 119.085 42.3798 122.971 39.7562C123.885 38.6725 124.913 37.7029 126.056 36.7904C129.028 34.3949 131.313 33.2542 133.085 33.2542H133.199C133.599 33.3112 133.942 33.4824 134.285 33.7675C134.685 33.9957 134.971 34.3949 135.028 34.8512C135.028 34.9082 135.028 34.9082 135.028 34.9653C135.599 35.1934 135.942 35.7638 135.828 36.3911C135.828 36.7333 135.656 37.1326 134.971 38.1022C132.742 41.125 132.628 41.8665 132.628 41.9806C132.628 42.5509 132.799 42.8931 133.713 42.8931C135.485 42.8931 137.999 41.8095 141.142 39.6992C141.999 38.3874 143.028 37.1896 144.171 36.163C146.971 33.5964 149.771 32.2846 152.513 32.2846C153.085 32.2846 153.599 32.3417 154.113 32.5698L154.971 31.3721C155.256 30.9158 155.771 30.6306 156.342 30.5736C157.085 30.5165 157.771 31.0869 157.771 31.8854C157.771 31.9424 157.771 32.0565 157.771 32.1135C157.771 32.5698 157.599 32.969 157.371 33.3113C155.199 36.6763 153.256 40.2125 151.485 43.8057C152.628 43.1213 153.713 42.4939 154.742 41.9806C155.999 41.2961 157.199 40.5547 158.342 39.6992C158.571 39.471 158.856 39.3569 159.142 39.3569C159.599 39.3569 159.999 39.7562 159.999 40.2125V40.3836L159.942 40.7258ZM129.771 73.5779C129.771 73.806 129.771 74.0912 129.885 74.3194C129.942 74.3764 129.999 74.3764 130.056 74.3764C130.399 74.3764 131.771 73.9201 135.428 68.1596C137.885 64.2812 140.971 58.6348 144.685 51.2772C134.799 58.8629 129.771 66.3345 129.771 73.5779ZM22.2849 24.1857C22.9706 22.3605 23.3134 20.4784 23.3706 18.5392C23.4277 14.3757 21.942 10.3832 19.1991 7.24629C16.342 3.8242 12.9134 2.17018 8.85629 2.17018C4.85629 2.11315 2.97057 4.28048 2.97057 8.9003C2.97057 13.235 4.85629 16.8852 8.68486 19.9651C12.1706 22.8168 15.942 24.2427 19.8849 24.2427C20.5706 24.2427 21.0849 24.2427 21.5991 24.2427C21.8277 24.1857 22.1134 24.1857 22.2849 24.1857ZM82.4563 37.7029C82.1706 37.874 81.942 38.0451 81.6563 38.2163C80.742 39.1288 79.8849 40.0414 78.9134 41.011L82.5706 42.3798C82.5134 40.7828 82.5134 39.2999 82.4563 37.7029ZM93.0277 36.7904C91.2563 38.7866 90.342 40.7258 90.342 42.5509C90.342 43.8057 90.7991 43.8057 91.0277 43.8057C92.0563 43.8057 93.0849 43.2353 94.1706 42.0946C93.5992 41.2391 93.2563 40.2125 93.3134 39.1288C93.3134 37.874 93.5991 36.6193 94.2277 35.5356C93.8849 35.8778 93.4849 36.2771 93.0277 36.7904ZM96.742 36.7904C96.3992 37.4178 96.2277 38.1022 96.2849 38.7866C96.2849 38.8436 96.2849 38.9007 96.2849 38.9577C96.6277 38.1592 96.8563 37.3607 96.9134 36.5052C96.8563 36.6193 96.7991 36.7333 96.742 36.7904ZM133.142 36.0489C131.371 36.4482 129.142 38.0452 126.456 40.6688C125.885 41.1821 125.428 41.8095 125.142 42.4939C125.713 42.3228 126.856 41.6954 129.142 39.8132C130.571 38.6725 131.885 37.4178 133.142 36.0489ZM152.571 34.9653C150.856 35.1934 149.028 36.106 147.028 37.7029C144.742 39.5281 143.599 41.125 143.599 42.3798C144.399 42.3228 146.628 41.2391 152.571 34.9653ZM104.056 17.1704V17.3985H103.313V17.1133C103.313 15.8586 102.856 14.946 101.542 14.946C100.228 14.946 99.7706 15.8586 99.7706 17.1133C99.7706 19.9651 103.999 20.0221 103.999 23.2731C103.999 24.9842 103.256 26.2389 101.485 26.2389C99.7134 26.2389 98.9706 24.9842 98.9706 23.2731V22.6457H99.7134V23.2731C99.7134 24.5279 100.228 25.4404 101.485 25.4404C102.742 25.4404 103.256 24.5279 103.256 23.2731C103.256 20.4784 99.0277 20.4214 99.0277 17.1133C99.0277 15.3452 99.8277 14.2046 101.542 14.2046C103.313 14.2046 104.056 15.4593 104.056 17.1704ZM107.713 14.3186C109.542 14.3186 110.228 15.4593 110.228 17.1704V18.4251C110.228 20.3073 109.371 21.2198 107.485 21.2198H105.999V26.0678H105.199V14.3186H107.713ZM107.542 20.5354C108.913 20.5354 109.485 19.908 109.485 18.4822V17.1133C109.485 15.8586 109.028 15.003 107.713 15.003H106.056V20.5354H107.542ZM112.342 23.5012L111.771 26.1249H111.085L113.656 14.3757H114.799L117.428 26.1249H116.628L116.056 23.5012H112.342ZM112.456 22.8168H115.885L114.171 15.2312L112.456 22.8168ZM126.171 17.2274V18.197H125.428V17.1704C125.428 15.9156 124.913 14.946 123.656 14.946C122.399 14.946 121.885 15.9156 121.885 17.1704V23.2731C121.885 24.5279 122.399 25.4975 123.656 25.4975C124.913 25.4975 125.428 24.5849 125.428 23.2731V21.9043H126.171V23.2731C126.171 24.9842 125.428 26.2389 123.656 26.2389C121.885 26.2389 121.142 24.9842 121.142 23.2731V17.2274C121.142 15.5164 121.885 14.2616 123.656 14.2616C125.428 14.2616 126.171 15.5164 126.171 17.2274ZM131.428 19.794V20.4784H128.228V25.3834H132.113V26.0678H127.485V14.3186H132.113V15.003H128.228V19.7369L131.428 19.794ZM134.056 26.0678H133.371V14.3186H134.399L137.942 24.2427V14.3186H138.628V26.0678H137.771L134.113 15.5734L134.056 26.0678ZM141.942 26.0678V15.0601H139.542V14.3757H145.085V15.0601H142.685V26.1249L141.942 26.0678ZM150.113 19.794V20.4784H146.913V25.3834H150.799V26.0678H146.171V14.3186H150.799V15.003H146.913V19.7369L150.113 19.794ZM154.513 14.3186C156.285 14.3186 157.028 15.2882 157.028 16.9422V17.9689C157.028 19.3377 156.513 20.1362 155.313 20.4214C156.513 20.7065 157.028 21.5621 157.028 22.8168V24.6419C156.971 25.1553 157.085 25.6115 157.313 26.0678H156.513C156.285 25.6115 156.228 25.1553 156.285 24.6419V22.8168C156.285 21.2769 155.428 20.8206 154.056 20.8206H152.856V26.0678H152.056V14.3186H154.513ZM154.056 20.1362C155.428 20.1362 156.228 19.7369 156.228 18.197V17.1133C156.228 15.8586 155.713 15.1171 154.456 15.1171H152.799V20.1932H154.056V20.1362Z" fill="#443E3B"/>
</svg>
