<svg width="160" height="77" viewBox="0 0 160 77" fill="none" xmlns="http://www.w3.org/2000/svg">
<path fill-rule="evenodd" clip-rule="evenodd" d="M159.943 40.7258C159.771 41.2391 159.143 42.0376 155.657 44.0909C153.257 45.5167 151.2 46.7715 149.429 47.9122C143.943 58.6918 140.571 65.0227 139.257 67.247C135.257 73.806 132 77 129.143 77C128.4 77 126.686 76.7148 126.686 74.0342C126.686 69.4714 128.4 64.8516 131.829 60.3458C135.143 55.8971 140.229 51.3343 146.857 46.8856C147.543 45.5167 148.686 43.2924 150.171 40.1554C149.829 40.4406 149.486 40.7828 149.143 41.125C146.286 43.8057 143.943 45.1175 142 45.1175C140.857 45.1175 140.114 44.376 140.114 43.1213C139.771 43.3494 139.314 43.5775 138.857 43.8627C136.229 45.2886 134.343 46.03 133.143 46.03C130.8 46.03 129.486 44.7182 129.429 42.2657C129.086 42.4939 128.743 42.779 128.286 43.1213C126 44.8323 124.4 45.6308 123.314 45.6308C122.057 45.6308 121.257 44.9464 121.257 43.8057C121.257 43.6916 121.257 43.5775 121.257 43.4635C118.171 45.3456 115.943 46.2582 114.629 46.2582C113.143 46.2582 112.286 45.3456 112.286 43.6916C112.286 43.2353 112.343 42.779 112.457 42.3228C112.514 42.0376 112.629 41.6954 112.686 41.4102C112.057 41.8665 111.2 42.3798 110.057 43.0642H110C109.371 43.3494 108.8 43.6916 108.286 43.9768C107.771 44.262 107.2 44.6042 106.743 44.8323C106.229 45.1175 105.714 45.3456 105.2 45.5167C104.629 45.6878 104.057 45.7449 103.486 45.7449C102.914 45.6878 102.286 45.5738 101.771 45.2886C101.143 44.9464 100.743 44.319 100.743 43.6346C99.9429 43.9197 99.0857 44.0909 98.2286 44.0909C97.3143 44.0909 96.4 43.8627 95.6 43.4635C93.8286 45.5738 91.8286 46.6574 89.7143 46.6574C88.7429 46.6574 87.1429 46.3152 86.8 44.0338C86.2286 44.0338 85.6 44.0338 85.0286 44.1479C84.8571 44.2049 84.6857 44.319 84.6286 44.5471C84.4572 46.7145 83.4857 48.5966 83.0286 50.6499C83.0286 50.7639 82.9714 50.821 82.9714 50.935C82.9143 51.0491 82.8571 51.1632 82.8571 51.2772C82.7429 51.6765 82.5143 52.0187 82.4571 52.4179C81.4857 54.5282 81.0286 56.8096 80.4 59.034C80.1143 59.8325 79.7714 60.631 79.3143 61.3154C79.0286 61.4865 78.7429 61.5435 78.4571 61.5435C78.4 61.2584 78.3429 60.9732 78.3429 60.688C78.3429 60.5169 78.4 60.3458 78.5143 60.2317C79.0857 59.1481 79.2571 57.8933 79.0857 56.6385C78.9143 56.1252 79.2 55.6119 79.7143 55.4408H79.7714C79.9429 55.3267 80.1143 55.1556 80.1714 54.9845C80.4 54.2431 80.5714 53.5016 80.7429 52.7031C81.1429 49.6803 81.7714 46.6574 82.6286 43.7486C81.5429 43.4064 80.3429 43.2353 79.2 43.2924C78.2857 43.2924 77.3714 43.1783 76.5143 43.0072C72.4 45.6878 69.6 46.9426 68 46.9426C66.5143 46.9426 65.6572 46.03 65.6572 44.376C65.6572 43.7486 65.7714 43.0642 65.9429 42.4939C65.2571 43.0642 64.5143 43.6916 63.6 44.319C60.6286 46.4863 59.4857 46.7715 58.8571 46.7715C58.1714 46.8285 57.5429 46.5434 57.1429 45.973C57.0286 46.0871 56.8571 46.2011 56.6857 46.3152C54.5143 47.9692 52.6857 48.7677 51.2 48.7677C48.9714 48.7677 47.7143 47.5129 47.7143 45.1745C47.7143 43.1213 49.2 39.357 52.2286 33.7105C52.7429 32.7409 53.2571 31.7713 53.7714 30.8017C50.9714 34.3949 47.8857 37.817 44.6286 41.011C39.6571 45.6878 36.0571 47.9692 33.6 47.9692C31.2 47.9692 29.8857 46.7715 29.8857 44.5471V44.4901C30.0571 42.779 30.5143 41.068 31.2571 39.471C32 37.817 33.0286 35.8778 34.2286 33.6535C34.7429 32.6839 35.2571 31.7143 35.7714 30.7447C32.9714 34.3379 29.8857 37.76 26.6286 40.9539C21.6571 45.6308 18.0571 47.9122 15.6 47.9122C13.2 47.9122 11.8857 46.7145 11.8857 44.4901C11.8857 42.8361 13.1429 40.0414 15.7714 35.8778C17.8286 32.7409 19.7143 29.4899 21.4286 26.1819H21.2C20.8 26.1819 20.4 26.2389 20.0571 26.2389C14.7429 26.2389 9.65714 24.1857 5.88571 20.5354C2 16.9422 0 13.0639 0 9.07141C0 6.21966 0.914286 3.93827 2.68571 2.28425C4.4 0.74431 6.68571 -0.0541789 8.97143 0.00285599C13.3714 0.00285599 17.4857 1.82797 21.1429 5.36414C24.8571 9.07141 26.7429 13.292 26.7429 17.9118C26.6857 19.794 26.3429 21.6761 25.7714 23.5012C28.8 22.6457 30.9143 21.1628 32.0571 19.0525L32.1143 18.9385L32.1714 18.8814C32.3429 18.7103 32.6286 18.5962 32.9143 18.5962C33.4286 18.5962 33.8857 18.9955 33.8857 19.5088C33.8857 19.5658 33.8857 19.5658 33.8857 19.6229C33.8857 20.4784 33.1429 21.505 31.4286 22.8168C29.4857 24.2997 27.2571 25.3834 24.8571 25.8967C23.8857 28.1211 21.8286 31.7143 18.8 36.5622C15.7714 41.4672 15.1429 43.5775 15.1429 44.4901C15.1429 45.6878 15.6571 45.8019 16.1714 45.8019C17.8286 45.8019 21.7143 43.5775 30.9143 32.855C37.0286 25.6115 41.4286 19.7369 44.1714 15.3452C44.6286 14.6038 45.4286 14.0905 46.3429 14.1475C47.0286 14.0905 47.6 14.5468 47.6571 15.1741C47.6571 15.2312 47.6571 15.2882 47.6571 15.3452C47.6571 15.8015 47.3714 16.2578 46.8 16.8852C46.3429 17.3985 45.9429 17.9118 45.6571 18.5392C44.5143 20.7065 43.3714 22.8739 42.2286 24.9271C41.0857 27.0374 39.9429 29.2047 38.8 31.315C37.2571 34.2238 36 36.7904 35.0286 38.9007C34.1714 40.6688 33.5429 42.5509 33.2 44.4901C33.2 45.6308 33.7143 45.7449 34.2286 45.7449C35.8857 45.7449 39.7714 43.5205 48.9714 32.7979C55.0857 25.5545 59.5429 19.6799 62.2286 15.2882C62.6857 14.5468 63.4857 14.0334 64.4 14.0905C65.0857 14.0334 65.6571 14.4897 65.7143 15.1171C65.7143 15.1741 65.7143 15.2312 65.7143 15.2882C65.7143 15.7445 65.4286 16.2008 64.8571 16.8282C64.4 17.3415 64 17.8548 63.7143 18.4822C62.5714 20.6495 61.4286 22.8168 60.2857 24.8701C59.1429 26.9233 58 29.0907 56.8571 31.258C52.0571 40.5547 51.0857 43.9197 51.0857 45.1175C51.0857 46.3722 51.5429 46.3722 51.8857 46.3722C52.5143 46.3722 53.7143 46.03 55.8286 44.319C56.4 43.8627 56.8571 43.4635 57.2 43.1783C57.7143 42.0376 58.2857 40.8969 58.9143 39.7562C59.6571 38.5585 60.2857 37.2467 60.8 35.9349C60.6857 35.9349 60.5714 35.9349 60.5143 35.9349C60.1714 35.9349 59.6 35.7638 59.6 34.566V34.0527L60.0571 33.8816C60.4571 33.7675 60.9143 33.6535 61.3714 33.6535C63.7143 33.6535 64.1143 34.7942 64.1143 35.4786C64.1143 36.4482 63.5429 37.9311 62.2286 40.0984C61.6 41.068 61.0857 42.0376 60.6286 43.0642C61.9429 42.2657 63.1429 41.3532 64.2857 40.3265C66.2857 38.6725 68.1143 36.9045 69.7714 34.9082L69.8286 34.8512C70.5714 34.1097 71.0857 33.7675 71.6 33.7675C72.3429 33.7105 73.0286 34.2808 73.0286 35.0223C73.0286 35.0793 73.0286 35.1364 73.0286 35.1934C72.9714 35.7067 72.8 36.22 72.5143 36.6193C69.6 40.9539 69.2 42.4368 69.2 42.9502C69.2 43.6346 69.4286 43.6916 69.8286 43.6916C70.5143 43.6916 71.9429 43.2924 74.8571 41.4672C74.7429 40.9539 74.8571 40.4406 75.0857 40.0414C75.9429 38.5014 77.2 37.1896 78.6857 36.22C78.9714 35.9919 79.2 35.6497 79.2 35.2504C79.4286 33.0261 79.5429 30.8017 79.7714 28.6344C79.8857 27.4937 80.1714 26.353 80.3429 25.2123C80.4572 24.5849 80.5714 23.9575 80.7429 23.3301C81.0857 22.0754 81.4857 20.8206 81.9429 19.5658C82.8571 16.8852 84.0571 14.3186 85.5429 11.8661C85.6571 11.695 85.8857 11.5809 86.0572 11.5239C87.0857 11.3528 88.1143 11.1817 89.1429 11.0106C89.7714 10.8395 90.4571 10.9536 90.9714 11.4098C91.3143 11.5809 91.5429 11.8661 91.6571 12.2654C91.8286 12.6646 92.0572 13.0639 92.3429 13.349C92.1143 13.8623 91.8857 14.2616 91.6571 14.7179H91.4857C91.4286 14.2616 91.3714 13.8053 91.3143 13.292C91.3143 13.1779 91.3143 13.0639 91.3143 12.9498C91.1429 12.7787 90.9714 12.6646 90.8 12.4935C90.8 12.7216 90.8 12.8927 90.8 13.1209C90.8571 13.349 90.9143 13.5772 90.9714 13.8053L90.7429 13.9194C90.4571 13.5201 90.1714 13.0639 89.9429 12.6076C89.8286 12.2654 89.6572 12.1513 89.3143 12.2083C88.2857 12.5505 87.2571 12.9498 86.2286 13.349C86.0571 13.4631 85.9429 13.6342 85.8857 13.8053C85.3714 14.8319 84.9143 15.9156 84.5143 16.9422C84.2286 18.0259 84 19.1666 83.7714 20.2503C84.4572 20.0791 85.0286 19.5658 85.2 18.8814C85.2571 18.3681 85.2571 17.8548 85.3143 17.3415C85.3714 16.9993 85.4857 16.7141 85.5429 16.4289C85.6571 15.9156 85.7714 15.4023 85.8857 14.889C86.0572 14.0905 87.0286 13.9764 87.6571 14.4327C88 14.6608 88.4 14.889 88.6857 15.1741C89.7143 16.1437 89.9429 17.7407 89.2 18.9955C89.1429 19.0525 89.0286 19.1666 89.0286 19.2236C89.1429 20.1362 88.5143 20.5925 87.9429 21.1058C87.6571 21.3339 87.4857 21.6191 87.1429 21.9043L86.3429 20.9347C86.1714 21.6191 86 22.1894 85.8286 22.7598L86.0572 22.8739C86.9714 21.9613 88.2857 21.6191 89.0286 20.4784C89.2571 20.1362 89.5429 19.851 89.7714 19.5658C90.1143 19.0525 90.4571 18.5392 90.8 18.0829C90.9714 17.8548 91.1429 17.5696 91.3714 17.3415C92.1714 16.4289 93.0286 15.5734 93.8286 14.6608C94.5143 14.0905 95.4286 13.9764 96.2286 14.3186C96.7429 14.6608 97.4857 14.8319 97.2571 15.6304C96.9714 15.8015 96.7429 15.9156 96.4571 16.0297C96.3429 16.0867 96.2286 16.0297 96.1714 15.9726C95.7143 15.2882 95.0286 15.8015 94.4571 15.6875C94.2857 15.7445 94.1714 15.8586 94.0572 16.0297C92.1143 18.8814 90.1714 21.7902 87.7714 24.3568C87.3143 24.813 86.8571 25.2693 86.4571 25.7826C86.0572 26.41 85.7714 27.0944 85.4286 27.7789C85.0857 28.4633 84.6286 29.0336 84.2857 29.7181C84.2286 29.8892 84.1714 30.0603 84.2857 30.2884C84.9714 31.4861 85.3714 32.7979 85.4857 34.1668C85.7714 36.7904 85.7143 39.414 85.3143 42.0376C85.8857 42.1517 86.4 42.2087 86.9143 42.3798C87.0857 39.8703 88.3429 37.3607 90.8 34.8512C93.0857 32.5698 94.6857 31.4861 95.8286 31.4861C97.3714 31.4861 97.4286 32.5698 97.4286 32.7409C97.4286 32.969 97.3143 33.2542 97.1429 33.4253C97.6572 33.4253 98.8 33.6535 99.0286 35.4786V35.5356C98.9714 37.4178 98.4 39.2429 97.4286 40.8969C97.9429 41.2391 98.5714 41.4672 99.2 41.4102C100.686 41.3532 102.057 40.7828 103.086 39.7562C103.314 39.5281 103.6 39.414 103.886 39.414C104.343 39.414 104.743 39.8132 104.743 40.2695V40.3265C104.686 40.8399 104.343 41.2961 103.886 41.5813C103.829 41.6383 103.829 41.6383 103.771 41.6954C103.829 41.8095 103.886 41.9235 104 42.0376C104.114 42.2087 104.229 42.4368 104.4 42.5509C104.514 42.6079 104.571 42.665 104.686 42.6079H105.029C105.714 42.4368 106.343 42.2087 106.971 41.8665C108.914 40.9539 110.743 39.7562 112.4 38.3874C113.886 37.1326 115.257 35.7067 116.457 34.1668L116.514 34.1097C117.257 33.3683 117.771 33.0261 118.286 33.0261C119.029 32.969 119.714 33.5394 119.714 34.2808C119.714 34.3379 119.714 34.3949 119.714 34.452C119.714 34.9653 119.486 35.4786 119.2 35.8778C116.286 40.2125 115.886 41.6954 115.886 42.2087C115.886 42.8931 116.114 42.9502 116.514 42.9502C117.314 42.9502 119.086 42.3798 122.971 39.7562C123.886 38.6725 124.914 37.7029 126.057 36.7904C129.029 34.3949 131.314 33.2542 133.086 33.2542H133.2C133.6 33.3112 133.943 33.4824 134.286 33.7675C134.686 33.9957 134.971 34.3949 135.029 34.8512C135.029 34.9082 135.029 34.9082 135.029 34.9653C135.6 35.1934 135.943 35.7638 135.829 36.3911C135.829 36.7333 135.657 37.1326 134.971 38.1022C132.743 41.125 132.629 41.8665 132.629 41.9806C132.629 42.5509 132.8 42.8931 133.714 42.8931C135.486 42.8931 138 41.8095 141.143 39.6992C142 38.3874 143.029 37.1896 144.171 36.163C146.971 33.5964 149.771 32.2846 152.514 32.2846C153.086 32.2846 153.6 32.3417 154.114 32.5698L154.971 31.3721C155.257 30.9158 155.771 30.6306 156.343 30.5736C157.086 30.5165 157.771 31.0869 157.771 31.8854C157.771 31.9424 157.771 32.0565 157.771 32.1135C157.771 32.5698 157.6 32.969 157.371 33.3113C155.2 36.6763 153.257 40.2125 151.486 43.8057C152.629 43.1213 153.714 42.4939 154.743 41.9806C156 41.2961 157.2 40.5547 158.343 39.6992C158.571 39.471 158.857 39.3569 159.143 39.3569C159.6 39.3569 160 39.7562 160 40.2125V40.3836L159.943 40.7258ZM129.771 73.5779C129.771 73.806 129.771 74.0912 129.886 74.3194C129.943 74.3764 130 74.3764 130.057 74.3764C130.4 74.3764 131.771 73.9201 135.429 68.1596C137.886 64.2812 140.971 58.6348 144.686 51.2772C134.8 58.8629 129.771 66.3345 129.771 73.5779ZM22.2857 24.1857C22.9714 22.3605 23.3143 20.4784 23.3714 18.5392C23.4286 14.3757 21.9429 10.3832 19.2 7.24629C16.3429 3.8242 12.9143 2.17018 8.85714 2.17018C4.85714 2.11315 2.97143 4.28048 2.97143 8.9003C2.97143 13.235 4.85714 16.8852 8.68571 19.9651C12.1714 22.8168 15.9429 24.2427 19.8857 24.2427C20.5714 24.2427 21.0857 24.2427 21.6 24.2427C21.8286 24.1857 22.1143 24.1857 22.2857 24.1857ZM82.4571 37.7029C82.1714 37.874 81.9429 38.0451 81.6571 38.2163C80.7429 39.1288 79.8857 40.0414 78.9143 41.011L82.5714 42.3798C82.5143 40.7828 82.5143 39.2999 82.4571 37.7029ZM93.0286 36.7904C91.2571 38.7866 90.3429 40.7258 90.3429 42.5509C90.3429 43.8057 90.8 43.8057 91.0286 43.8057C92.0572 43.8057 93.0857 43.2353 94.1714 42.0946C93.6 41.2391 93.2571 40.2125 93.3143 39.1288C93.3143 37.874 93.6 36.6193 94.2286 35.5356C93.8857 35.8778 93.4857 36.2771 93.0286 36.7904ZM96.7429 36.7904C96.4 37.4178 96.2286 38.1022 96.2857 38.7866C96.2857 38.8436 96.2857 38.9007 96.2857 38.9577C96.6286 38.1592 96.8571 37.3607 96.9143 36.5052C96.8571 36.6193 96.8 36.7333 96.7429 36.7904ZM133.143 36.0489C131.371 36.4482 129.143 38.0452 126.457 40.6688C125.886 41.1821 125.429 41.8095 125.143 42.4939C125.714 42.3228 126.857 41.6954 129.143 39.8132C130.571 38.6725 131.886 37.4178 133.143 36.0489ZM152.571 34.9653C150.857 35.1934 149.029 36.106 147.029 37.7029C144.743 39.5281 143.6 41.125 143.6 42.3798C144.4 42.3228 146.629 41.2391 152.571 34.9653ZM104.057 17.1704V17.3985H103.314V17.1133C103.314 15.8586 102.857 14.946 101.543 14.946C100.229 14.946 99.7714 15.8586 99.7714 17.1133C99.7714 19.9651 104 20.0221 104 23.2731C104 24.9842 103.257 26.2389 101.486 26.2389C99.7143 26.2389 98.9714 24.9842 98.9714 23.2731V22.6457H99.7143V23.2731C99.7143 24.5279 100.229 25.4404 101.486 25.4404C102.743 25.4404 103.257 24.5279 103.257 23.2731C103.257 20.4784 99.0286 20.4214 99.0286 17.1133C99.0286 15.3452 99.8286 14.2046 101.543 14.2046C103.314 14.2046 104.057 15.4593 104.057 17.1704ZM107.714 14.3186C109.543 14.3186 110.229 15.4593 110.229 17.1704V18.4251C110.229 20.3073 109.371 21.2198 107.486 21.2198H106V26.0678H105.2V14.3186H107.714ZM107.543 20.5354C108.914 20.5354 109.486 19.908 109.486 18.4822V17.1133C109.486 15.8586 109.029 15.003 107.714 15.003H106.057V20.5354H107.543ZM112.343 23.5012L111.771 26.1249H111.086L113.657 14.3757H114.8L117.429 26.1249H116.629L116.057 23.5012H112.343ZM112.457 22.8168H115.886L114.171 15.2312L112.457 22.8168ZM126.171 17.2274V18.197H125.429V17.1704C125.429 15.9156 124.914 14.946 123.657 14.946C122.4 14.946 121.886 15.9156 121.886 17.1704V23.2731C121.886 24.5279 122.4 25.4975 123.657 25.4975C124.914 25.4975 125.429 24.5849 125.429 23.2731V21.9043H126.171V23.2731C126.171 24.9842 125.429 26.2389 123.657 26.2389C121.886 26.2389 121.143 24.9842 121.143 23.2731V17.2274C121.143 15.5164 121.886 14.2616 123.657 14.2616C125.429 14.2616 126.171 15.5164 126.171 17.2274ZM131.429 19.794V20.4784H128.229V25.3834H132.114V26.0678H127.486V14.3186H132.114V15.003H128.229V19.7369L131.429 19.794ZM134.057 26.0678H133.371V14.3186H134.4L137.943 24.2427V14.3186H138.629V26.0678H137.771L134.114 15.5734L134.057 26.0678ZM141.943 26.0678V15.0601H139.543V14.3757H145.086V15.0601H142.686V26.1249L141.943 26.0678ZM150.114 19.794V20.4784H146.914V25.3834H150.8V26.0678H146.171V14.3186H150.8V15.003H146.914V19.7369L150.114 19.794ZM154.514 14.3186C156.286 14.3186 157.029 15.2882 157.029 16.9422V17.9689C157.029 19.3377 156.514 20.1362 155.314 20.4214C156.514 20.7065 157.029 21.5621 157.029 22.8168V24.6419C156.971 25.1553 157.086 25.6115 157.314 26.0678H156.514C156.286 25.6115 156.229 25.1553 156.286 24.6419V22.8168C156.286 21.2769 155.429 20.8206 154.057 20.8206H152.857V26.0678H152.057V14.3186H154.514ZM154.057 20.1362C155.429 20.1362 156.229 19.7369 156.229 18.197V17.1133C156.229 15.8586 155.714 15.1171 154.457 15.1171H152.8V20.1932H154.057V20.1362Z" fill="#443E3B"/>
</svg>
