<svg width="386" height="186" viewBox="0 0 386 186" fill="none" xmlns="http://www.w3.org/2000/svg">
<path fill-rule="evenodd" clip-rule="evenodd" d="M385.862 98.3766C385.449 99.6165 383.932 101.545 375.523 106.505C369.733 109.949 364.77 112.98 360.496 115.736C347.262 141.775 339.129 157.068 335.958 162.441C326.308 178.285 318.45 186 311.557 186C309.765 186 305.629 185.311 305.629 178.836C305.629 167.814 309.765 156.654 318.036 145.77C326.032 135.024 338.301 124.002 354.293 113.256C355.947 109.949 358.704 104.576 362.289 96.9989C361.461 97.6877 360.634 98.5144 359.807 99.341C352.914 105.816 347.262 108.985 342.575 108.985C339.818 108.985 338.026 107.194 338.026 104.163C337.199 104.714 336.096 105.265 334.993 105.954C328.651 109.398 324.102 111.189 321.207 111.189C315.555 111.189 312.384 108.021 312.246 102.096C311.419 102.648 310.592 103.336 309.489 104.163C303.975 108.296 300.115 110.225 297.496 110.225C294.463 110.225 292.533 108.572 292.533 105.816C292.533 105.541 292.533 105.265 292.533 104.99C285.089 109.536 279.712 111.741 276.541 111.741C272.957 111.741 270.889 109.536 270.889 105.541C270.889 104.439 271.027 103.336 271.303 102.234C271.441 101.545 271.716 100.719 271.854 100.03C270.338 101.132 268.27 102.372 265.513 104.025H265.375C263.859 104.714 262.48 105.541 261.239 106.23C259.999 106.918 258.62 107.745 257.517 108.296C256.276 108.985 255.036 109.536 253.795 109.949C252.416 110.363 251.038 110.501 249.659 110.501C248.281 110.363 246.764 110.087 245.524 109.398C244.007 108.572 243.042 107.056 243.042 105.403C241.112 106.092 239.044 106.505 236.976 106.505C234.771 106.505 232.565 105.954 230.635 104.99C226.361 110.087 221.536 112.705 216.436 112.705C214.092 112.705 210.232 111.878 209.405 106.367C208.026 106.367 206.51 106.367 205.131 106.643C204.718 106.781 204.304 107.056 204.166 107.607C203.753 112.843 201.409 117.389 200.306 122.349C200.306 122.625 200.169 122.762 200.169 123.038C200.031 123.313 199.893 123.589 199.893 123.865C199.617 124.829 199.066 125.656 198.928 126.62C196.584 131.718 195.481 137.228 193.965 142.602C193.276 144.53 192.449 146.459 191.346 148.113C190.656 148.526 189.967 148.664 189.278 148.664C189.14 147.975 189.002 147.286 189.002 146.597C189.002 146.184 189.14 145.77 189.416 145.495C190.794 142.877 191.208 139.846 190.794 136.815C190.381 135.575 191.07 134.335 192.311 133.922H192.449C192.862 133.646 193.276 133.233 193.414 132.82C193.965 131.029 194.379 129.238 194.792 127.309C195.757 120.007 197.274 112.705 199.341 105.679C196.722 104.852 193.827 104.439 191.07 104.576C188.864 104.576 186.659 104.301 184.591 103.887C174.665 110.363 167.91 113.394 164.05 113.394C160.466 113.394 158.398 111.189 158.398 107.194C158.398 105.679 158.674 104.025 159.087 102.648C157.433 104.025 155.641 105.541 153.435 107.056C146.266 112.292 143.509 112.98 141.993 112.98C140.339 113.118 138.822 112.429 137.857 111.052C137.581 111.327 137.168 111.603 136.754 111.878C131.516 115.874 127.104 117.803 123.52 117.803C118.144 117.803 115.111 114.772 115.111 109.123C115.111 104.163 118.695 95.07 126.001 81.4305C127.242 79.0884 128.483 76.7463 129.724 74.4041C122.969 83.0838 115.524 91.3502 107.666 99.0654C95.6729 110.363 86.9879 115.874 81.06 115.874C75.27 115.874 72.0993 112.98 72.0993 107.607V107.47C72.5129 103.336 73.6157 99.2032 75.4079 95.3456C77.2 91.3502 79.6814 86.6659 82.5764 81.2928C83.8172 78.9506 85.0579 76.6085 86.2986 74.2664C79.5436 82.9461 72.0993 91.2124 64.2414 98.9277C52.2479 110.225 43.5629 115.736 37.635 115.736C31.845 115.736 28.6743 112.843 28.6743 107.47C28.6743 103.474 31.7071 96.7233 38.0486 86.6659C43.0114 79.0884 47.5607 71.2354 51.6964 63.2446H51.145C50.18 63.2446 49.215 63.3823 48.3879 63.3823C35.5671 63.3823 23.2979 58.4225 14.1993 49.6051C4.825 40.9254 0 31.5568 0 21.9128C0 15.0241 2.20571 9.51321 6.47929 5.51781C10.615 1.79794 16.1293 -0.130874 21.6436 0.00689887C32.2586 0.00689887 42.1843 4.41562 51.0071 12.9575C59.9679 21.9128 64.5171 32.1079 64.5171 43.2675C64.3793 47.814 63.5521 52.3605 62.1736 56.7692C69.48 54.7027 74.5807 51.1206 77.3379 46.023L77.4757 45.7474L77.6136 45.6097C78.0271 45.1963 78.7164 44.9208 79.4057 44.9208C80.6464 44.9208 81.7493 45.8852 81.7493 47.1252C81.7493 47.2629 81.7493 47.2629 81.7493 47.4007C81.7493 49.4673 79.9571 51.9472 75.8214 55.116C71.1343 58.6981 65.7579 61.3157 59.9679 62.5557C57.6243 67.9288 52.6614 76.6085 45.355 88.3192C38.0486 100.168 36.5321 105.265 36.5321 107.47C36.5321 110.363 37.7729 110.638 39.0136 110.638C43.0114 110.638 52.3857 105.265 74.5807 79.364C89.3314 61.8668 99.9464 47.6762 106.564 37.0677C107.666 35.2767 109.596 34.0367 111.802 34.1745C113.456 34.0367 114.835 35.1389 114.973 36.6544C114.973 36.7922 114.973 36.93 114.973 37.0677C114.973 38.1699 114.284 39.2721 112.905 40.7876C111.802 42.0276 110.837 43.2675 110.148 44.783C107.391 50.0184 104.634 55.2537 101.876 60.2136C99.1193 65.3112 96.3621 70.5465 93.605 75.6441C89.8829 82.6705 86.85 88.8703 84.5064 93.9679C82.4386 98.2388 80.9221 102.785 80.095 107.47C80.095 110.225 81.3357 110.501 82.5764 110.501C86.5743 110.501 95.9486 105.127 118.144 79.2262C132.894 61.7291 143.647 47.5385 150.126 36.93C151.229 35.1389 153.159 33.899 155.365 34.0367C157.019 33.899 158.398 35.0012 158.536 36.5167C158.536 36.6544 158.536 36.7922 158.536 36.93C158.536 38.0322 157.846 39.1343 156.468 40.6498C155.365 41.8898 154.4 43.1297 153.711 44.6452C150.954 49.8806 148.196 55.116 145.439 60.0758C142.682 65.0356 139.925 70.271 137.168 75.5063C125.588 97.9633 123.244 106.092 123.244 108.985C123.244 112.016 124.347 112.016 125.174 112.016C126.691 112.016 129.586 111.189 134.686 107.056C136.065 105.954 137.168 104.99 137.995 104.301C139.236 101.545 140.614 98.7899 142.131 96.0344C143.923 93.1412 145.439 89.9725 146.68 86.8037C146.404 86.8037 146.129 86.8037 145.991 86.8037C145.164 86.8037 143.785 86.3904 143.785 83.4971V82.2572L144.888 81.8439C145.853 81.5683 146.956 81.2928 148.059 81.2928C153.711 81.2928 154.676 84.0482 154.676 85.7015C154.676 88.0436 153.297 91.6257 150.126 96.8611C148.61 99.2032 147.369 101.545 146.266 104.025C149.437 102.096 152.332 99.8921 155.089 97.4122C159.914 93.4168 164.326 89.1458 168.324 84.3238L168.461 84.186C170.254 82.395 171.494 81.5683 172.735 81.5683C174.527 81.4305 176.181 82.8083 176.181 84.5993C176.181 84.7371 176.181 84.8749 176.181 85.0126C176.044 86.2526 175.63 87.4925 174.941 88.4569C167.91 98.9277 166.945 102.51 166.945 103.75C166.945 105.403 167.496 105.541 168.461 105.541C170.116 105.541 173.562 104.576 180.593 100.168C180.317 98.9277 180.593 97.6877 181.144 96.7233C183.212 93.0034 186.245 89.8347 189.829 87.4925C190.519 86.9415 191.07 86.1148 191.07 85.1504C191.621 79.7773 191.897 74.4041 192.449 69.1688C192.724 66.4133 193.414 63.6579 193.827 60.9024C194.103 59.3869 194.379 57.8714 194.792 56.3559C195.619 53.3249 196.584 50.2939 197.687 47.2629C199.893 40.7876 202.788 34.5878 206.372 28.6636C206.648 28.2503 207.199 27.9748 207.613 27.837C210.094 27.4237 212.576 27.0103 215.057 26.597C216.574 26.1837 218.228 26.4593 219.469 27.5614C220.296 27.9747 220.847 28.6636 221.123 29.628C221.536 30.5924 222.088 31.5568 222.777 32.2457C222.226 33.4857 221.674 34.4501 221.123 35.5522H220.709C220.571 34.4501 220.434 33.3479 220.296 32.1079C220.296 31.8324 220.296 31.5568 220.296 31.2813C219.882 30.868 219.469 30.5924 219.055 30.1791C219.055 30.7302 219.055 31.1435 219.055 31.6946C219.193 32.2457 219.331 32.7968 219.469 33.3479L218.917 33.6234C218.228 32.659 217.539 31.5568 216.987 30.4547C216.711 29.628 216.298 29.3525 215.471 29.4902C212.989 30.3169 210.508 31.2813 208.026 32.2457C207.613 32.5212 207.337 32.9346 207.199 33.3479C205.959 35.8278 204.856 38.4455 203.891 40.9254C203.201 43.5431 202.65 46.2985 202.099 48.9162C203.753 48.5029 205.131 47.2629 205.545 45.6097C205.683 44.3697 205.683 43.1297 205.821 41.8898C205.959 41.0632 206.234 40.3743 206.372 39.6854C206.648 38.4455 206.924 37.2055 207.199 35.9656C207.613 34.0367 209.956 33.7612 211.473 34.8634C212.3 35.4145 213.265 35.9656 213.954 36.6544C216.436 38.9966 216.987 42.8542 215.195 45.8852C215.057 46.023 214.781 46.2985 214.781 46.4363C215.057 48.6407 213.541 49.7428 212.162 50.9828C211.473 51.5339 211.059 52.2227 210.232 52.9116L208.302 50.5695C207.889 52.2227 207.475 53.6005 207.061 54.9782L207.613 55.2537C209.819 53.0494 212.989 52.2227 214.781 49.4673C215.333 48.6407 216.022 47.9518 216.574 47.2629C217.401 46.023 218.228 44.783 219.055 43.6808C219.469 43.1297 219.882 42.4409 220.434 41.8898C222.364 39.6854 224.431 37.6188 226.361 35.4145C228.016 34.0367 230.221 33.7612 232.151 34.5878C233.392 35.4145 235.184 35.8278 234.633 37.7566C233.944 38.1699 233.392 38.4455 232.703 38.721C232.427 38.8588 232.151 38.721 232.014 38.5832C230.911 36.93 229.256 38.1699 227.878 37.8944C227.464 38.0322 227.189 38.3077 226.913 38.721C222.226 45.6097 217.539 52.6361 211.749 58.8358C210.646 59.938 209.543 61.0402 208.578 62.2802C207.613 63.7957 206.924 65.4489 206.096 67.1022C205.269 68.7555 204.166 70.1332 203.339 71.7865C203.201 72.1998 203.064 72.6131 203.339 73.1642C204.994 76.0574 205.959 79.2262 206.234 82.5327C206.924 88.8703 206.786 95.2078 205.821 101.545C207.199 101.821 208.44 101.959 209.681 102.372C210.094 96.31 213.127 90.248 219.055 84.186C224.569 78.6751 228.429 76.0574 231.186 76.0574C234.909 76.0574 235.046 78.6751 235.046 79.0884C235.046 79.6395 234.771 80.3284 234.357 80.7417C235.598 80.7417 238.355 81.2928 238.906 85.7015V85.8393C238.769 90.3858 237.39 94.7945 235.046 98.7899C236.287 99.6165 237.804 100.168 239.32 100.03C242.904 99.8921 246.213 98.5144 248.694 96.0344C249.246 95.4834 249.935 95.2078 250.624 95.2078C251.727 95.2078 252.692 96.1722 252.692 97.2744V97.4122C252.554 98.6521 251.727 99.7543 250.624 100.443C250.486 100.581 250.486 100.581 250.349 100.719C250.486 100.994 250.624 101.27 250.9 101.545C251.176 101.959 251.451 102.51 251.865 102.785C252.141 102.923 252.279 103.061 252.554 102.923H253.381C255.036 102.51 256.552 101.959 258.069 101.132C262.756 98.9277 267.167 96.0344 271.165 92.7279C274.749 89.6969 278.058 86.2526 280.953 82.5327L281.091 82.395C282.883 80.6039 284.124 79.7773 285.364 79.7773C287.156 79.6395 288.811 81.0172 288.811 82.8083C288.811 82.946 288.811 83.0838 288.811 83.2216C288.811 84.4615 288.259 85.7015 287.57 86.6659C280.539 97.1366 279.574 100.719 279.574 101.959C279.574 103.612 280.126 103.75 281.091 103.75C283.021 103.75 287.294 102.372 296.669 96.0344C298.874 93.4168 301.356 91.0746 304.113 88.8703C311.281 83.0838 316.796 80.3284 321.069 80.3284H321.345C322.31 80.4661 323.137 80.8795 323.964 81.5683C324.929 82.1194 325.619 83.0838 325.756 84.186C325.756 84.3238 325.756 84.3238 325.756 84.4615C327.135 85.0126 327.962 86.3904 327.686 87.9059C327.686 88.7325 327.273 89.6969 325.619 92.039C320.242 99.341 319.966 101.132 319.966 101.408C319.966 102.785 320.38 103.612 322.586 103.612C326.859 103.612 332.925 100.994 340.507 95.8967C342.575 92.7279 345.056 89.8347 347.814 87.3548C354.569 81.155 361.324 77.9862 367.941 77.9862C369.319 77.9862 370.56 78.124 371.801 78.6751L373.869 75.7819C374.558 74.6797 375.799 73.9908 377.177 73.8531C378.969 73.7153 380.624 75.093 380.624 77.0218C380.624 77.1596 380.624 77.4351 380.624 77.5729C380.624 78.6751 380.21 79.6395 379.659 80.4661C374.42 88.5947 369.733 97.1366 365.459 105.816C368.216 104.163 370.836 102.648 373.317 101.408C376.35 99.7543 379.245 97.9633 382.002 95.8967C382.554 95.3456 383.243 95.07 383.932 95.07C385.035 95.07 386 96.0344 386 97.1366V97.5499L385.862 98.3766ZM313.074 177.734C313.074 178.285 313.074 178.974 313.349 179.525C313.487 179.662 313.625 179.662 313.763 179.662C314.59 179.662 317.899 178.56 326.721 164.645C332.649 155.277 340.094 141.637 349.054 123.865C325.205 142.188 313.074 160.237 313.074 177.734ZM53.7643 58.4225C55.4186 54.0138 56.2457 49.4673 56.3836 44.783C56.5214 34.7256 52.9371 25.0815 46.32 17.504C39.4271 9.23767 31.1557 5.24226 21.3679 5.24226C11.7179 5.10449 7.16857 10.3398 7.16857 21.4994C7.16857 31.9702 11.7179 40.7876 20.9543 48.2273C29.3636 55.116 38.4621 58.5603 47.9743 58.5603C49.6286 58.5603 50.8693 58.5603 52.11 58.5603C52.6614 58.4225 53.3507 58.4225 53.7643 58.4225ZM198.928 91.0746C198.239 91.4879 197.687 91.9013 196.998 92.3146C194.792 94.5189 192.724 96.7233 190.381 99.0654L199.204 102.372C199.066 98.5144 199.066 94.9323 198.928 91.0746ZM224.431 88.8703C220.158 93.6923 217.952 98.3766 217.952 102.785C217.952 105.816 219.055 105.816 219.606 105.816C222.088 105.816 224.569 104.439 227.189 101.683C225.81 99.6165 224.983 97.1366 225.121 94.5189C225.121 91.4879 225.81 88.457 227.326 85.8393C226.499 86.6659 225.534 87.6303 224.431 88.8703ZM233.392 88.8703C232.565 90.3858 232.151 92.039 232.289 93.6923C232.289 93.8301 232.289 93.9679 232.289 94.1056C233.116 92.1768 233.668 90.248 233.806 88.1814C233.668 88.4569 233.53 88.7325 233.392 88.8703ZM321.207 87.0792C316.934 88.0436 311.557 91.9013 305.078 98.2388C303.699 99.4788 302.596 100.994 301.907 102.648C303.286 102.234 306.043 100.719 311.557 96.1722C315.004 93.4168 318.174 90.3858 321.207 87.0792ZM368.079 84.4615C363.943 85.0126 359.531 87.217 354.706 91.0746C349.192 95.4833 346.435 99.341 346.435 102.372C348.365 102.234 353.741 99.6165 368.079 84.4615Z" fill="white" fill-opacity="0.05"/>
</svg>
