<svg width="261" height="51" viewBox="0 0 261 51" fill="none" xmlns="http://www.w3.org/2000/svg">
<path d="M0.139221 19H260.139V39C260.139 45.6274 254.767 51 248.139 51H12.1392C5.5118 51 0.139221 45.6274 0.139221 39V19Z" fill="#CB997E"/>
<path fill-rule="evenodd" clip-rule="evenodd" d="M12.2544 31.7321C12.4383 31.309 12.6222 30.9706 12.8981 30.6322C12.9901 30.3784 13.174 30.1246 13.4499 29.9553C13.6338 29.8707 13.8177 29.7861 14.0017 29.7861C14.1856 29.7861 14.2775 29.7861 14.4615 29.8707C14.6454 29.9553 14.7374 30.04 14.8293 30.1246C14.9213 30.2938 15.0133 30.3784 15.1052 30.5476C15.1972 30.7168 15.2891 30.9706 15.3811 31.1398C15.4731 31.3937 15.565 31.6475 15.657 31.9013C15.749 32.0705 15.8409 32.2397 16.0248 32.4089C16.1168 32.5781 16.2088 32.6628 16.3927 32.7474C16.4847 32.832 16.5766 32.9166 16.7605 32.9166C16.8525 32.9166 16.9445 32.9166 17.0364 32.9166C17.1284 32.9166 17.1284 32.9166 17.2204 32.9166C17.3123 32.9166 17.4043 32.832 17.4962 32.7474C17.5882 32.6628 17.7721 32.4935 17.8641 32.4089C17.9561 32.2397 18.048 32.0705 18.14 31.9013C18.3239 31.4783 18.5998 31.2244 18.8757 30.9706C19.0596 30.8014 19.4275 30.7168 19.7034 30.8014C20.0712 30.8014 20.4391 30.886 20.7149 31.1398C20.9908 31.3937 21.1748 31.8167 21.1748 32.2397C21.2667 32.4089 21.2667 32.6628 21.3587 33.0012C21.4506 33.255 21.5426 33.5934 21.7265 33.9318C21.9105 34.2703 22.0024 34.6087 22.0944 35.0317C22.1864 35.4548 22.3703 35.7086 22.5542 36.047C22.7381 36.3854 22.8301 36.6392 22.9221 36.9777C23.014 37.3161 23.106 37.4853 23.1979 37.5699C23.1979 37.6545 23.2899 37.8237 23.3819 37.993C23.4738 38.1622 23.5658 38.416 23.5658 38.6698C23.6578 38.9236 23.6578 39.1774 23.6578 39.4313C23.6578 39.6851 23.6578 39.9389 23.5658 40.1081C23.4738 40.3619 23.3819 40.5311 23.1979 40.7004C23.014 40.8696 22.7381 41.0388 22.3703 41.0388C21.9105 41.1234 21.5426 41.0388 21.0828 40.8696C20.8069 40.785 20.531 40.5311 20.4391 40.2773C20.3471 40.0235 20.2551 39.6851 20.2551 39.3467C20.1632 39.0082 20.0712 38.5006 19.9792 38.0776C19.8873 37.3161 19.7034 36.5546 19.4275 35.7932C19.3355 35.4548 19.1516 35.1163 18.7837 34.8625C18.5998 34.8625 18.3239 34.9471 18.232 35.1163C18.048 35.2855 17.9561 35.5394 17.8641 35.7932C17.8641 36.1316 17.7721 36.3854 17.5882 36.6392C17.3123 36.8085 17.0364 36.9777 16.7605 36.8931C16.5766 36.8931 16.3927 36.8085 16.2088 36.7239C16.1168 36.6392 16.0248 36.5546 15.9329 36.3854C15.8409 36.2162 15.8409 36.1316 15.8409 35.9624C15.8409 35.7932 15.8409 35.624 15.749 35.3702C15.657 35.2009 15.657 35.1163 15.565 35.0317C15.4731 34.9471 15.2891 34.8625 15.1052 34.8625C14.9213 34.8625 14.7374 34.9471 14.5534 35.0317C14.3695 35.2009 14.1856 35.4548 14.0936 35.624C13.9097 36.047 13.8177 36.3008 13.6338 36.6392C13.5418 36.9777 13.4499 37.3161 13.3579 37.6545C13.266 37.993 13.174 38.3314 13.082 38.6698C12.9901 39.0082 12.8981 39.262 12.8061 39.5159C12.7142 39.7697 12.6222 40.1081 12.5303 40.3619C12.4383 40.6157 12.2544 40.785 12.0704 40.9542C11.8865 41.1234 11.7026 41.208 11.5187 41.2926C11.3347 41.3772 11.1508 41.2926 10.9669 41.208C10.783 41.1234 10.599 40.9542 10.4151 40.7004C10.3231 40.5311 10.2312 40.2773 10.1392 40.1081C10.1392 39.8543 10.1392 39.6851 10.1392 39.4313C10.1392 39.1774 10.2312 38.9236 10.3231 38.6698C10.4151 38.5006 10.4151 38.3314 10.5071 38.0776C10.599 37.8237 10.691 37.4853 10.783 37.1469C10.8749 36.8085 10.9669 36.3854 11.0588 36.047C11.1508 35.7086 11.2428 35.2855 11.3347 34.8625C11.7026 33.8472 11.9785 32.832 12.2544 31.7321ZM35.337 39.8543C35.521 40.2773 35.6129 40.7004 35.7049 41.1234C35.7969 41.4618 35.7049 41.7156 35.6129 41.9694C35.521 42.2233 35.2451 42.3925 35.0611 42.4771C34.6933 42.6463 34.3254 42.7309 33.9576 42.7309C33.5897 42.7309 33.2219 42.6463 32.946 42.3925C32.6701 42.1387 32.4862 41.8848 32.3942 41.5464C32.2103 41.208 32.1183 40.785 32.1183 40.4465C32.0264 40.0235 31.9344 39.6005 31.8424 39.1774C31.8424 39.0082 31.7505 38.7544 31.5666 38.5852C31.4746 38.5006 31.2907 38.5006 31.2907 38.5852C31.1067 38.7544 31.0148 38.839 30.9228 39.0082C30.8309 39.1774 30.6469 39.4313 30.555 39.6851C30.463 39.9389 30.2791 40.1927 30.1871 40.4465C30.0952 40.7004 30.0032 40.9542 29.8193 41.1234C29.7273 41.3772 29.5434 41.7156 29.4514 41.9694C29.2675 42.2233 29.0836 42.4771 28.8077 42.6463C28.5318 42.8155 28.2559 42.9847 27.98 43.0693C27.6122 43.1539 27.2443 43.0693 26.8765 42.9847C26.5086 42.8155 26.2327 42.6463 25.9568 42.3925C25.6809 42.1387 25.497 41.8002 25.4051 41.5464C25.3131 41.208 25.3131 40.8696 25.3131 40.5311C25.4051 40.1927 25.589 39.7697 25.8649 39.5159C26.0488 39.262 26.2327 38.9236 26.3247 38.6698C26.5086 38.2468 26.6925 37.8237 26.8765 37.2315C27.0604 36.6392 27.2443 36.1316 27.5202 35.4548C27.7041 34.7779 27.98 34.1857 28.1639 33.5088C28.6238 31.9859 29.1755 30.2938 29.7273 28.517C29.8193 28.2632 29.9112 28.0094 30.0952 27.8402C30.2791 27.671 30.463 27.5018 30.6469 27.4172C30.9228 27.2479 31.1987 27.2479 31.4746 27.2479C31.7505 27.3325 32.0264 27.4172 32.2103 27.5864C32.3942 27.7556 32.5782 28.0094 32.7621 28.2632C32.946 28.517 33.038 28.8555 33.1299 29.1093C33.2219 29.4477 33.3139 29.7015 33.3139 29.9553C33.3139 30.1246 33.4058 30.3784 33.4978 30.8014C33.5897 31.2244 33.6817 31.7321 33.7737 32.3243C33.8656 32.9166 34.0496 33.5934 34.1415 34.2703C34.2335 34.9471 34.4174 35.624 34.6013 36.3008C34.7853 36.9777 34.8772 37.5699 35.0611 38.1622C35.2451 38.7544 35.1531 39.5159 35.337 39.8543ZM31.2907 36.047C31.3826 36.047 31.5666 35.9624 31.5666 35.8778C31.6585 35.7932 31.6585 35.7086 31.6585 35.5394C31.6585 35.3702 31.6585 35.2009 31.6585 35.0317L31.5666 33.7626V33.678C31.5666 33.678 31.5666 33.5934 31.4746 33.5934C31.3826 33.5934 31.3826 33.5934 31.2907 33.5934C31.1987 33.5934 31.1067 33.5934 31.0148 33.678C30.9228 33.7626 30.9228 33.7626 30.9228 33.8472C30.9228 33.9318 30.8309 34.0165 30.9228 34.1011V35.0317C30.9228 35.1163 30.9228 35.2009 30.9228 35.3702C30.9228 35.4548 30.9228 35.5394 30.9228 35.7086C30.9228 35.7932 31.0148 35.8778 31.0148 35.9624C31.1067 35.9624 31.1987 36.047 31.2907 36.047ZM47.2002 31.3937C47.2002 31.4783 47.2002 31.4783 47.2002 31.5629C47.2922 32.0705 47.3842 32.5781 47.3842 33.1704C47.3842 33.4242 47.2922 33.678 47.3842 34.0165C47.3842 34.1857 47.3842 34.4395 47.3842 34.6087C47.3842 34.7779 47.3842 34.9471 47.2922 35.0317C47.2922 35.1163 47.2922 35.2855 47.2922 35.4548C47.2922 35.624 47.2922 35.8778 47.2922 36.1316C47.2922 36.3854 47.2922 36.6392 47.2922 36.9777C47.2922 37.3161 47.2922 37.5699 47.2922 37.9083C47.2922 38.6698 47.3842 39.4313 47.3842 40.2773C47.4761 40.5311 47.4761 40.785 47.4761 41.0388C47.4761 41.208 47.3842 41.4618 47.2002 41.5464C47.0163 41.7156 46.7404 41.8002 46.4645 41.8002C46.2806 41.8002 46.0967 41.8002 45.9128 41.8002C45.8208 41.8002 45.6369 41.7156 45.5449 41.631C45.4529 41.5464 45.361 41.4618 45.269 41.3772C45.1771 41.2926 45.1771 41.208 45.0851 41.1234C44.9931 40.8696 44.9931 40.6157 44.9931 40.3619L45.0851 34.1857C45.1771 33.0012 44.7172 32.4935 43.6137 32.6628C43.5217 32.6628 43.4298 32.6628 43.3378 32.6628C43.4298 32.7474 43.2458 32.832 43.2458 32.9166C43.1539 33.0012 43.0619 33.1704 43.0619 33.3396C43.0619 33.5088 42.97 33.678 42.97 33.8472C42.878 34.0165 42.878 34.2703 42.878 34.5241C42.878 34.7779 42.878 35.2009 42.878 35.8778C42.878 36.47 42.878 37.0623 42.786 37.6545C42.6941 38.3314 42.6021 38.9236 42.5101 39.5159C42.4182 39.9389 42.2342 40.3619 41.9584 40.785C41.6825 41.1234 41.4066 41.3772 41.0387 41.5464C40.6709 41.7156 40.2111 41.8848 39.7513 41.8848C39.3834 41.8848 39.0156 41.8848 38.7397 41.8848C38.3718 41.8848 37.912 41.8002 37.6361 41.4618C37.3602 41.1234 37.1763 40.785 37.0843 40.3619C37.0843 40.1927 37.1763 40.0235 37.3602 39.9389C37.5441 39.8543 37.7281 39.7697 37.912 39.7697C38.1879 39.7697 38.4638 39.7697 38.8316 39.7697C39.1995 39.7697 39.4754 39.6005 39.7513 39.3467C40.0271 39.1774 40.2111 38.9236 40.303 38.5852C40.487 38.2468 40.5789 37.9083 40.6709 37.5699C40.7628 37.1469 40.7628 36.8085 40.8548 36.3854C40.9468 35.9624 40.9468 35.5394 40.9468 35.2009C40.9468 34.8625 40.9468 34.4395 41.0387 34.1857C41.0387 33.8472 40.9468 33.5088 40.7628 33.255C40.5789 33.0858 40.487 32.9166 40.303 32.832C40.1191 32.7474 40.0271 32.6628 39.8432 32.5781C39.6593 32.4935 39.5673 32.4089 39.4754 32.2397C39.3834 32.0705 39.3834 31.8167 39.3834 31.6475C39.3834 31.4783 39.4754 31.309 39.6593 31.2244C39.8432 31.0552 40.0271 30.886 40.2111 30.8014C40.5789 30.3784 42.3262 30.2092 45.361 30.2938C45.6369 30.2938 45.8208 30.2938 46.0967 30.3784C46.3726 30.463 46.5565 30.5476 46.7404 30.6322C46.9244 30.8014 47.1083 30.9706 47.2002 31.1398C47.2922 31.2244 47.2922 31.309 47.2922 31.3937C47.2002 31.2244 47.2002 31.309 47.2002 31.3937ZM60.259 33.5088C60.259 33.8472 60.259 34.1857 60.167 34.5241C60.167 34.8625 60.167 35.2009 60.167 35.4548C60.167 35.7086 60.167 36.047 60.167 36.2162C60.167 36.3854 60.167 36.6392 60.167 36.7239C60.167 36.8931 60.167 37.1469 60.167 37.5699C60.167 37.9083 60.167 38.2468 60.167 38.5852C60.167 38.9236 60.075 39.1774 60.075 39.5159C59.9831 39.8543 59.8911 40.1081 59.7992 40.3619C59.7072 40.6157 59.5233 40.8696 59.3393 41.1234C59.1554 41.3772 58.8795 41.5464 58.6036 41.7156C58.4197 41.8002 58.1438 41.8848 57.9599 41.8848C57.776 41.8848 57.684 41.8002 57.592 41.7156C57.5001 41.5464 57.4081 41.4618 57.4081 41.2926C57.4081 41.1234 57.3162 40.8696 57.3162 40.7004C57.3162 40.4465 57.3162 40.2773 57.3162 40.0235C57.3162 39.7697 57.4081 39.6005 57.4081 39.4313C57.4081 39.3467 57.4081 39.1774 57.4081 38.9236C57.4081 38.6698 57.4081 38.3314 57.4081 37.993C57.4081 37.6545 57.4081 37.2315 57.4081 36.8931C57.4081 36.5546 57.4081 36.3008 57.4081 36.047C57.4081 35.8778 57.3162 35.624 57.3162 35.4548C57.3162 35.3702 57.2242 35.2855 57.1322 35.2009C56.9483 35.2855 56.6724 35.3702 56.4885 35.5394C56.3046 35.7086 56.0287 35.8778 55.8447 36.1316C55.6608 36.3854 55.4769 36.5546 55.293 36.8085C55.109 37.0623 54.9251 37.3161 54.8332 37.5699C54.7412 37.7391 54.5573 37.9083 54.4653 38.1622C54.3733 38.416 54.1894 38.6698 54.0055 38.9236C53.8216 39.1774 53.6376 39.5159 53.5457 39.8543C53.3618 40.1927 53.1778 40.4465 52.9939 40.7004C52.81 40.9542 52.5341 41.1234 52.2582 41.2926C51.9823 41.4618 51.7064 41.5464 51.4305 41.631C51.0627 41.7156 50.7868 41.7156 50.4189 41.5464C50.235 41.3772 50.0511 41.208 50.0511 40.9542C49.9591 40.7004 49.9591 40.4465 50.0511 40.1927C50.0511 39.9389 50.0511 39.7697 50.1431 39.5159C50.1431 39.4313 50.1431 39.1774 50.1431 38.7544C50.1431 38.416 50.1431 38.0776 50.1431 37.6545C50.1431 37.2315 50.1431 36.8931 50.1431 36.5546C50.1431 36.2162 50.1431 35.7932 50.0511 35.3702C49.9591 34.9471 49.9591 34.6933 49.9591 34.3549C49.9591 34.1011 49.8672 33.9318 49.8672 33.678C49.6832 33.255 49.6832 32.9166 49.6832 32.4935C49.6832 31.8167 49.5913 31.3937 49.5913 31.1398C49.5913 30.886 49.5913 30.5476 49.5913 30.2938C49.5913 30.04 49.6832 29.7015 49.7752 29.4477C49.8672 29.1939 50.0511 28.9401 50.235 28.7709C50.4189 28.6016 50.6948 28.4324 50.9707 28.4324C51.3386 28.2632 51.7984 28.2632 52.1662 28.3478C52.4421 28.517 52.6261 28.6863 52.81 28.9401C52.9939 29.2785 53.0859 29.6169 53.0859 29.9553C53.0859 30.3784 53.0859 30.8014 53.0859 31.1398C53.0859 31.4783 52.9939 32.0705 52.9019 32.9166C52.81 33.7626 52.718 34.3549 52.6261 34.6933C52.5341 35.0317 52.5341 35.3702 52.5341 35.624C52.5341 35.7932 52.718 36.047 52.9019 36.047C53.1778 36.047 53.4537 35.9624 53.6376 35.7932C53.8216 35.624 54.0975 35.4548 54.1894 35.2855C54.3733 35.0317 54.5573 34.8625 54.6492 34.6087L55.0171 34.0165C55.109 33.8472 55.201 33.678 55.3849 33.3396C55.5689 33.0012 55.7528 32.7474 55.9367 32.3243C56.1206 31.9013 56.3965 31.5629 56.6724 31.2244C56.9483 30.886 57.2242 30.463 57.4081 30.1246C57.684 29.8707 57.9599 29.5323 58.2358 29.2785C58.4197 29.1093 58.6956 28.9401 58.9715 28.7709C59.1554 28.6863 59.4313 28.6016 59.6152 28.6863C59.7991 28.7709 59.9831 28.9401 60.075 29.1939C60.167 29.4477 60.259 29.7015 60.3509 29.9553C60.4429 30.2938 60.4429 30.5476 60.4429 30.886C60.3509 31.8167 60.3509 32.7474 60.259 33.5088ZM62.65 31.4783C62.65 31.2244 62.742 30.9706 62.9259 30.7168C63.1098 30.463 63.2937 30.2938 63.5696 30.2092C63.9375 30.04 64.3973 29.8707 64.7651 29.8707C65.041 29.8707 65.3169 29.8707 65.5008 29.9553C65.6848 30.04 65.8687 30.2092 65.9607 30.3784C66.0526 30.5476 66.1446 30.7168 66.2365 30.9706C66.2365 31.2244 66.3285 31.3937 66.3285 31.6475C66.3285 31.9013 66.3285 32.0705 66.3285 32.2397C66.3285 32.4089 66.3285 32.5781 66.3285 32.7474C66.3285 32.9166 66.2365 33.0858 66.2365 33.3396C66.2365 33.5088 66.2365 33.7626 66.2365 33.9318C66.3285 34.1011 66.4205 34.2703 66.6044 34.3549C66.8803 34.5241 67.1562 34.5241 67.4321 34.5241C67.708 34.5241 68.0758 34.4395 68.1678 34.1857C68.3517 33.9318 68.4437 33.5934 68.4437 33.3396C68.4437 33.0012 68.4437 32.6628 68.3517 32.3243C68.2597 31.9859 68.2597 31.6475 68.1678 31.4783C68.1678 31.309 68.1678 31.1398 68.1678 30.9706C68.1678 30.7168 68.1678 30.5476 68.1678 30.2938C68.1678 30.04 68.2597 29.8707 68.2597 29.6169C68.3517 29.3631 68.4437 29.1939 68.5356 28.9401C68.6276 28.7709 68.8115 28.6016 68.9954 28.4324C69.1794 28.2632 69.4553 28.1786 69.7311 28.094C70.007 28.0094 70.1909 28.0094 70.4668 28.094C70.6508 28.1786 70.9267 28.3478 71.0186 28.517C71.2025 28.6863 71.3865 28.9401 71.4784 29.1093C71.5704 29.3631 71.6624 29.6169 71.7543 29.7861C71.8463 30.04 71.9382 30.2092 71.9382 30.463C71.9382 30.7168 72.0302 30.8014 72.0302 30.886C72.0302 31.0552 72.0302 31.3937 72.1222 31.8167C72.2141 32.2397 72.2141 32.6627 72.3061 33.255C72.3981 33.8472 72.49 34.3549 72.582 34.9471C72.6739 35.5394 72.8579 36.047 72.9498 36.6392C73.0418 37.2315 73.2257 37.6545 73.3177 38.2468C73.4096 38.6698 73.5016 39.1774 73.5016 39.6851C73.5016 40.1081 73.4096 40.5311 73.2257 40.8696C72.8579 41.4618 72.0302 41.8002 71.2025 41.7156C70.9267 41.631 70.7427 41.5464 70.4668 41.3772C70.2829 41.208 70.099 41.0388 69.9151 40.8696C69.7311 40.7004 69.6392 40.4465 69.5472 40.1927C69.4552 39.9389 69.3633 39.7697 69.2713 39.5159C69.1794 39.3467 69.0874 39.0928 69.0874 39.0082C68.9954 38.7544 68.9035 38.5852 68.8115 38.3314C68.7195 38.1622 68.5356 37.9083 68.4437 37.8237C68.2597 37.6545 68.1678 37.5699 67.9838 37.4853C67.7999 37.4007 67.616 37.4007 67.4321 37.4007C67.2481 37.4007 67.0642 37.4853 66.8803 37.5699C66.6964 37.7391 66.6044 37.9083 66.5124 38.1622C66.4205 38.416 66.3285 38.7544 66.3285 39.0082C66.3285 39.4313 66.3285 39.7697 66.4205 40.1927C66.5124 40.6157 66.5124 41.1234 66.5124 41.5464C66.5124 41.9694 66.4205 42.3925 66.3285 42.7309C66.2365 43.0693 65.9607 43.4078 65.6848 43.577C65.3169 43.8308 64.9491 44 64.5812 44C64.3053 44 63.9375 43.9154 63.6616 43.8308C63.3857 43.7462 63.2018 43.577 63.0178 43.3231C62.8339 43.1539 62.742 42.9001 62.65 42.6463C62.4661 42.1387 62.3741 41.631 62.2821 41.1234C62.2821 40.8696 62.2821 40.7004 62.2821 40.5311C62.2821 40.3619 62.2821 40.1927 62.3741 39.8543C62.3741 39.5159 62.3741 39.1774 62.3741 38.7544C62.3741 38.3314 62.3741 37.8237 62.3741 37.3161C62.3741 36.8085 62.3741 36.3008 62.3741 35.7932C62.742 34.2703 62.742 32.9166 62.65 31.4783ZM85.4568 35.7932C85.5487 36.3854 85.5487 37.0623 85.4568 37.6545C85.3648 38.2468 85.1809 38.839 84.905 39.4313C84.6291 39.9389 84.3532 40.4465 83.9854 40.8696C83.6175 41.208 83.2497 41.5464 82.7899 41.8002C82.514 41.9694 82.2381 42.0541 81.9622 42.2233C81.6863 42.3925 81.3185 42.4771 81.0426 42.5617C80.6747 42.6463 80.3988 42.6463 80.031 42.6463C79.6631 42.6463 79.2953 42.5617 78.9274 42.3925C78.5596 42.2233 78.1917 41.9694 77.8239 41.7156C77.3641 41.3772 76.9962 40.9542 76.7203 40.5311C76.4444 40.1081 76.2605 39.6851 76.0766 39.262C75.8926 38.839 75.8007 38.416 75.8007 37.993C75.8007 37.5699 75.8007 37.1469 75.8007 36.7239C75.8007 36.3008 75.8926 35.8778 75.9846 35.5394C76.1685 34.6087 76.5364 33.7626 76.9962 32.9166C77.0882 32.7474 77.1801 32.5781 77.2721 32.4089C77.456 32.0705 77.7319 31.8167 78.0078 31.6475C78.3756 31.3937 78.8355 31.1398 79.2953 30.9706C80.4908 30.6322 81.8702 30.8014 82.9738 31.3937C83.4336 31.6475 83.8934 32.0705 84.1693 32.4935C84.6291 32.9166 84.813 33.4242 84.997 34.0165C85.1809 34.5241 85.3648 35.1163 85.4568 35.7932ZM81.8702 39.6851C82.2381 39.1774 82.514 38.6698 82.6979 38.1622C82.8818 37.6545 82.8818 37.2315 82.8818 36.7239C82.8818 36.3008 82.7899 35.8778 82.6979 35.5394C82.6059 35.2009 82.422 34.9471 82.33 34.6933C82.2381 34.5241 81.9622 34.3549 81.7783 34.1857C81.5943 34.1011 81.4104 34.0165 81.2265 34.0165C81.0426 33.9318 80.7667 33.9318 80.5827 34.0165C80.2149 34.1011 79.939 34.2703 79.7551 34.5241C79.5712 34.7779 79.3872 35.1163 79.2033 35.4548C79.1113 35.7932 78.9274 36.1316 78.8355 36.47C78.7435 36.8085 78.6515 37.0623 78.5596 37.3161C78.3756 37.8237 78.3756 38.2468 78.4676 38.7544C78.5596 39.1774 78.7435 39.5159 79.0194 39.8543C79.2033 40.0235 79.3872 40.1927 79.5712 40.2773C79.7551 40.3619 80.031 40.4465 80.2149 40.4465C80.4908 40.4465 80.7667 40.3619 81.0426 40.2773C81.3185 40.1927 81.5943 39.9389 81.8702 39.6851ZM95.2048 38.416C95.6647 38.6698 96.1245 39.0082 96.4004 39.3467C96.6762 39.6005 96.8602 39.9389 96.9521 40.3619C97.0441 40.7004 97.0441 41.0388 96.8602 41.3772C96.6762 41.7156 96.4923 42.0541 96.2164 42.3079C96.0325 42.5617 95.7566 42.7309 95.4807 42.9001C95.2048 43.0693 94.837 43.1539 94.4691 43.2385C94.1013 43.3232 93.7334 43.4078 93.3656 43.4078C92.9977 43.4924 92.6299 43.4924 92.354 43.4924C92.0781 43.4924 91.7103 43.4924 91.5263 43.4924C91.3424 43.4924 91.1585 43.4924 90.9746 43.4078C90.8826 43.4078 90.6987 43.3231 90.6067 43.3231C90.4228 43.3231 90.2388 43.3232 90.0549 43.2385C89.871 43.2385 89.5951 43.1539 89.4112 43.0693C89.2273 42.9847 89.0433 42.9001 88.8594 42.8155C88.6755 42.6463 88.5835 42.4771 88.4916 42.3079C88.3996 42.0541 88.3996 41.8002 88.4916 41.4618C88.4916 41.208 88.4916 40.8696 88.4916 40.3619C88.4916 39.8543 88.4916 39.3467 88.3996 38.6698C88.3996 38.0776 88.3076 37.4007 88.2157 36.6392C88.1237 35.9624 88.1237 35.2009 88.0317 34.5241C87.8478 32.832 87.7559 31.0552 87.48 29.1093C87.48 29.0247 87.48 28.8555 87.48 28.7709C87.48 28.6863 87.48 28.517 87.5719 28.4324C87.5719 28.3478 87.6639 28.1786 87.7559 28.094C87.9398 28.0094 88.1237 27.9248 88.3076 27.8402C88.5835 27.7556 88.9514 27.7556 89.2273 27.7556C89.6871 27.7556 90.2388 27.8402 90.6987 27.9248C91.2504 28.0094 91.7103 28.1786 92.262 28.3478C92.6299 28.517 92.9977 28.7709 93.2736 29.1093C93.5495 29.7015 93.7334 29.9553 93.8254 30.3784C93.9174 30.7168 93.9174 31.0552 93.9174 31.3937C93.8254 31.7321 93.7334 32.0705 93.5495 32.4089C93.3656 32.7474 93.0897 33.0858 92.7218 33.255C92.446 33.5088 92.262 33.7626 92.1701 34.1011C91.9861 34.4395 91.9861 34.7779 91.9861 35.0317C92.0781 35.3702 92.1701 35.7086 92.354 35.9624C92.5379 36.3008 92.8138 36.6392 93.0897 36.8931C93.3656 37.2315 93.7334 37.4853 94.0093 37.7391C94.3772 37.993 94.745 38.2468 95.2048 38.416ZM90.6067 31.6475C90.6987 31.6475 90.7906 31.5629 90.8826 31.4783C90.9746 31.3937 90.9746 31.309 90.9746 31.1398C90.9746 30.9706 90.9746 30.886 90.8826 30.7168C90.7906 30.6322 90.6987 30.6322 90.6067 30.5476C90.3308 30.5476 90.0549 30.7168 90.0549 30.9706V31.0552C90.0549 31.1398 90.1469 31.309 90.2388 31.3937C90.2388 31.5629 90.4228 31.6475 90.6067 31.6475ZM91.2504 41.2926C91.4344 41.2926 91.5263 41.208 91.6183 41.1234C91.7103 41.0388 91.7103 40.9542 91.7103 40.785C91.7103 40.5311 91.6183 40.3619 91.3424 40.2773H91.2504C91.1585 40.2773 91.0665 40.3619 90.9746 40.3619C90.8826 40.4465 90.8826 40.6157 90.8826 40.7004C90.8826 40.785 90.8826 40.9542 90.9746 41.0388C91.0665 41.208 91.1585 41.2926 91.2504 41.2926ZM103.114 36.3008C103.757 36.2162 104.401 36.3008 104.953 36.5546C105.781 36.8931 106.516 37.4853 106.884 38.2468C107.344 38.839 107.528 39.5159 107.62 40.2773C107.528 40.7004 107.436 41.1234 107.252 41.5464C107.068 41.8848 106.792 42.2233 106.516 42.5617C106.24 42.8155 105.873 43.0693 105.413 43.2385C104.953 43.4078 104.493 43.577 104.033 43.577C103.665 43.577 103.206 43.577 102.838 43.577C102.47 43.577 102.194 43.4924 101.826 43.4078C101.55 43.3231 101.182 43.2385 100.907 43.1539C100.539 43.0693 100.171 42.8155 99.8949 42.5617C99.803 42.3925 99.6191 42.3079 99.5271 42.1387C99.4351 41.9694 99.3432 41.7156 99.2512 41.5464C99.1592 41.2926 99.1592 41.0388 99.0673 40.785C99.0673 40.4465 99.0673 40.1081 99.0673 39.7697C99.0673 39.3467 99.1592 38.7544 99.1592 38.2468C99.1592 37.6545 99.2512 37.0623 99.3432 36.47C99.3432 35.8778 99.4351 35.4548 99.4351 35.2009C99.4351 34.8625 99.5271 34.4395 99.5271 34.1011C99.5271 33.678 99.5271 33.255 99.4351 32.832C99.4351 32.5781 99.3432 32.3243 99.1592 32.1551C98.9753 31.9859 98.8834 31.7321 98.7914 31.4783C98.6994 31.2244 98.6994 30.9706 98.6994 30.8014C98.6994 30.5476 98.8834 30.3784 99.0673 30.2092C99.3432 29.9553 99.711 29.8707 100.079 29.7861C100.447 29.7015 100.907 29.7861 101.274 29.9553C101.55 30.1246 101.734 30.2938 101.918 30.5476C102.102 30.8014 102.102 31.0552 102.194 31.309C102.194 31.5629 102.194 31.9013 102.102 32.1551C102.01 32.6628 101.918 33.1704 101.826 33.7626C101.826 34.1011 101.734 34.4395 101.734 34.7779C101.734 34.8625 101.734 35.0317 101.826 35.4548C101.826 35.7932 101.918 36.047 101.918 36.1316C101.918 36.2162 101.918 36.3008 102.01 36.3854C102.01 36.47 102.102 36.47 102.194 36.47C102.562 36.47 102.838 36.3854 103.114 36.3008ZM103.114 38.1622C102.93 38.2468 102.746 38.416 102.654 38.5006C102.562 38.6698 102.47 38.7544 102.378 38.9236C102.286 39.0082 102.286 39.1774 102.286 39.262C102.286 39.6851 102.47 40.1081 102.746 40.3619C103.114 40.6157 103.481 40.7004 103.941 40.7004C104.217 40.7004 104.493 40.6157 104.677 40.3619C104.861 40.0235 104.953 39.6851 104.953 39.262C104.953 39.1774 104.861 39.0082 104.861 38.9236C104.769 38.7544 104.677 38.5852 104.585 38.5006C104.493 38.3314 104.401 38.2468 104.217 38.1622C104.125 38.0776 103.941 37.993 103.849 37.993C103.573 37.993 103.298 38.0776 103.114 38.1622ZM110.287 41.2926C110.379 41.7156 110.379 42.0541 110.287 42.4771C110.287 42.6463 110.195 42.7309 110.103 42.9001C110.011 43.0693 109.919 43.1539 109.827 43.2385C109.735 43.3232 109.551 43.4078 109.367 43.4924C109.183 43.577 108.907 43.577 108.723 43.577C108.539 43.4924 108.356 43.4078 108.264 43.2385C108.08 42.9847 107.988 42.7309 107.988 42.4771C107.896 42.0541 107.988 41.5464 108.08 41.1234C108.264 40.3619 108.264 39.6005 108.264 38.839C108.264 38.2468 108.08 37.6545 107.988 37.0623C107.804 36.3854 107.62 35.624 107.344 34.8625C107.16 34.3549 107.068 33.7626 106.976 33.255C106.976 32.9166 106.976 32.5781 106.976 32.3243C106.976 31.9859 107.068 31.7321 107.16 31.3937C107.252 31.1398 107.344 30.886 107.528 30.6322C107.712 30.463 107.896 30.2938 108.172 30.2092C108.447 30.1246 108.723 30.1246 108.907 30.2938C109.091 30.3784 109.275 30.5476 109.367 30.8014C109.459 30.9706 109.551 31.1398 109.551 31.3937C109.551 31.5629 109.551 31.6475 109.551 31.8167L110.287 41.2926ZM123.162 34.0165C123.162 34.3549 123.162 34.6933 123.162 34.9471C123.162 35.2009 123.162 35.5394 123.162 35.7086C123.162 35.8778 123.162 36.1316 123.162 36.2162C123.162 36.3854 123.162 36.6392 123.254 37.0623C123.345 37.4853 123.254 37.7391 123.254 38.0776C123.254 38.416 123.254 38.6698 123.162 39.0082C123.162 39.3467 123.07 39.6005 122.978 39.8543C122.886 40.1081 122.702 40.3619 122.518 40.6157C122.334 40.8696 122.058 41.0388 121.782 41.208C121.598 41.2926 121.322 41.3772 121.138 41.3772C120.954 41.3772 120.862 41.2926 120.679 41.208C120.587 41.0388 120.495 40.9542 120.495 40.785C120.403 40.6157 120.403 40.3619 120.403 40.1927C120.403 39.9389 120.403 39.7697 120.403 39.5159C120.403 39.3467 120.403 39.0928 120.495 38.9236V38.416C120.495 38.1622 120.495 37.9083 120.495 37.7391C120.495 37.5699 120.495 37.2315 120.495 36.8931C120.495 36.5546 120.495 36.3008 120.403 36.047C120.403 35.8778 120.311 35.624 120.311 35.4548C120.311 35.3702 120.219 35.2855 120.127 35.2009C119.943 35.2855 119.667 35.3702 119.575 35.5394C119.115 35.9624 118.747 36.3854 118.379 36.8931C117.92 37.4007 117.552 37.9083 117.184 38.416C117 38.6698 116.908 38.9236 116.724 39.1774C116.54 39.4313 116.356 39.6851 116.172 39.9389C115.988 40.1927 115.713 40.3619 115.529 40.5311C115.253 40.7004 114.977 40.785 114.701 40.8696C114.333 40.9542 114.057 40.9542 113.689 40.785C113.505 40.6157 113.322 40.4465 113.322 40.1927C113.23 39.9389 113.23 39.6851 113.23 39.4313C113.23 39.1774 113.23 38.9236 113.23 38.7544C113.23 38.6698 113.23 38.416 113.23 38.1622C113.23 37.9083 113.23 37.5699 113.23 37.2315C113.23 36.8931 113.23 36.47 113.138 36.1316C113.046 35.7932 113.046 35.3702 113.046 34.9471C112.954 34.5241 112.954 34.1011 112.77 33.678C112.678 33.3396 112.586 32.9166 112.494 32.4935C112.494 32.2397 112.494 31.9013 112.494 31.6475C112.494 31.3937 112.586 31.0552 112.678 30.8014C112.77 30.5476 112.954 30.2938 113.138 30.1246C113.322 29.9553 113.597 29.7861 113.873 29.7861C114.241 29.6169 114.701 29.6169 115.069 29.7015C115.345 29.7861 115.621 30.04 115.805 30.2938C115.988 30.6322 116.08 30.9706 116.08 31.309C116.08 31.7321 116.172 32.1551 116.08 32.4935C116.08 32.7474 116.08 33.0858 115.988 33.3396C115.896 33.678 115.805 33.9318 115.805 34.2703C115.713 34.6087 115.713 34.9471 115.805 35.2009C115.805 35.3702 115.988 35.624 116.172 35.624C116.448 35.624 116.724 35.5394 116.908 35.3702C117.092 35.2009 117.276 35.0317 117.46 34.8625C117.644 34.6087 118.104 34.1011 118.931 33.255C119.759 32.4089 120.219 31.8167 120.495 31.4783C120.679 31.1398 120.954 30.886 121.23 30.5476C121.414 30.3784 121.598 30.2092 121.874 30.04C122.058 29.9553 122.334 29.8707 122.518 29.9553C122.702 30.04 122.886 30.2092 122.978 30.463C123.162 30.7168 123.254 30.9706 123.254 31.2244C123.345 31.5629 123.345 31.8167 123.345 32.1551C123.162 33.0858 123.162 33.678 123.162 34.0165ZM121.138 29.3631C120.771 29.7015 120.311 29.9553 119.759 30.1246C119.391 30.2092 119.115 30.2938 119.115 30.2938C119.023 30.2938 118.931 30.3784 118.747 30.3784C118.288 30.3784 117.828 30.2092 117.46 30.04C116.724 29.7015 116.08 29.1093 115.896 28.3478C115.896 28.1786 115.805 27.9248 115.896 27.7556C115.896 27.5018 115.988 27.2479 116.172 27.0787C116.264 26.9095 116.356 26.7403 116.54 26.6557C116.632 26.6557 116.724 26.6557 116.816 26.6557C116.908 26.7403 117 26.8249 117 26.9095C117 26.9941 117.092 26.9941 117.092 27.0787C117.184 27.1633 117.276 27.2479 117.276 27.3325C117.368 27.5018 117.552 27.671 117.736 27.7556C117.92 27.9248 118.104 28.0094 118.379 28.0094C118.655 28.094 118.931 28.0094 119.115 27.8402C119.391 27.671 119.667 27.5018 119.943 27.4172L120.587 27.0787C120.771 26.9095 120.954 26.8249 121.138 26.7403C121.322 26.6557 121.506 26.5711 121.69 26.4865C121.782 26.4865 121.874 26.4865 121.966 26.5711C122.058 26.5711 122.15 26.6557 122.15 26.7403C122.242 26.8249 122.242 26.9095 122.334 27.0787C122.426 27.2479 122.426 27.4172 122.426 27.5864C122.518 27.8402 122.518 28.094 122.426 28.2632C122.334 28.4324 122.242 28.6016 122.15 28.6863C121.966 28.7709 121.598 29.0247 121.138 29.3631ZM143.669 30.8014C142.842 30.7168 139.807 30.04 139.807 30.5476L139.899 34.7779C141.094 34.6933 142.382 34.6087 142.75 34.6087C143.117 34.6087 143.209 35.7932 142.75 35.8778C142.198 35.9624 141.002 36.047 139.899 36.1316V36.8085C139.899 38.6698 139.991 40.1081 139.991 40.785C139.991 41.7156 136.312 41.4618 136.312 40.6157C136.312 39.262 136.22 30.463 136.22 29.7861C136.22 28.7709 142.014 29.3631 144.129 29.2785C144.865 29.2785 144.221 30.886 143.669 30.8014ZM150.658 39.7697C150.842 39.7697 153.877 40.0235 154.245 40.0235C154.613 40.0235 154.889 41.2926 154.337 41.2926C153.785 41.2926 148.267 41.3772 147.348 41.3772C146.52 41.3772 146.336 41.1234 146.244 39.7697C146.152 38.416 145.784 31.2244 145.784 29.2785C145.784 28.6016 149.371 28.2632 149.463 29.0247C149.555 30.2092 150.199 39.0928 150.199 39.4313C150.291 39.6005 150.383 39.7697 150.658 39.7697ZM154.981 35.624C154.705 32.832 155.532 30.6322 156.544 29.7015C157.556 28.8555 158.935 28.4324 160.315 28.517C164.361 28.517 166.384 30.9706 166.384 35.0317C166.384 39.0928 163.901 41.2926 161.05 41.2926C157.188 41.2926 155.257 38.7544 154.981 35.624ZM163.073 35.1163C163.073 31.309 161.878 30.3784 160.958 30.3784C159.855 30.3784 158.567 31.5629 158.567 35.3702C158.567 39.1774 160.223 40.0235 161.142 40.0235C162.154 39.9389 163.073 38.9236 163.073 35.1163ZM185.696 29.3631C185.512 30.6322 182.937 40.1081 182.753 40.785V40.8696C182.57 41.2926 179.259 41.7156 178.983 41.0388C178.431 39.4313 177.328 35.624 176.684 33.3396C175.948 35.2855 174.385 40.0235 173.925 40.9542C173.741 41.3772 173.281 41.631 172.821 41.5464C171.534 41.631 170.982 41.3772 170.706 40.5311C170.43 39.6851 168.499 31.2244 168.315 29.9553C168.131 29.0247 171.074 27.8402 171.442 28.7709C171.81 29.6169 173.189 35.2009 173.649 37.9083C174.477 36.047 175.856 32.3243 176.224 31.309C176.316 30.1246 179.259 30.1246 179.443 30.6322C179.995 31.9859 181.006 34.9471 181.834 37.4853C182.202 35.1163 182.753 31.5629 183.305 28.7709C183.397 28.3478 185.788 28.6863 185.696 29.3631ZM189.467 30.463C189.651 30.04 189.835 29.6169 190.11 29.1939C190.294 28.9401 190.57 28.6863 190.846 28.517C191.03 28.4324 191.306 28.3478 191.49 28.3478C191.674 28.3478 191.858 28.3478 191.95 28.4324C192.134 28.517 192.226 28.6016 192.318 28.6863C192.41 28.8555 192.593 29.0247 192.685 29.1939C192.777 29.4477 192.961 29.6169 193.053 29.8707C193.145 30.1246 193.237 30.3784 193.329 30.6322C193.421 30.886 193.605 31.0552 193.697 31.309C193.789 31.4783 193.973 31.5629 194.065 31.6475C194.157 31.7321 194.341 31.8167 194.433 31.8167C194.525 31.8167 194.617 31.8167 194.709 31.8167C194.801 31.8167 194.801 31.8167 194.893 31.8167C194.985 31.8167 195.076 31.7321 195.168 31.6475C195.352 31.5629 195.444 31.3937 195.536 31.309C195.72 31.1398 195.904 30.886 195.996 30.6322C196.18 30.2092 196.456 29.8707 196.732 29.6169C197.008 29.4477 197.284 29.3631 197.651 29.4477C198.019 29.4477 198.479 29.6169 198.755 29.8707C199.123 30.2092 199.307 30.7168 199.307 31.1398C199.399 31.3937 199.399 31.6475 199.583 31.9859C199.675 32.3243 199.859 32.6628 199.951 33.0858C200.042 33.5088 200.226 33.8472 200.41 34.2703C200.594 34.6933 200.686 35.0317 200.87 35.4548C201.054 35.8778 201.146 36.1316 201.33 36.47C201.514 36.8085 201.606 36.9777 201.698 37.1469C201.79 37.2315 201.79 37.4853 201.882 37.6545C201.974 37.9083 202.066 38.1622 202.158 38.416C202.25 38.6698 202.25 38.9236 202.342 39.262C202.342 39.5159 202.342 39.7697 202.25 40.0235C202.158 40.2773 201.974 40.5311 201.79 40.7004C201.514 40.8696 201.238 41.0388 200.87 41.1234C200.41 41.208 199.859 41.1234 199.491 40.9542C199.215 40.8696 198.939 40.6157 198.755 40.3619C198.571 40.0235 198.479 39.6851 198.387 39.3467C198.295 38.9236 198.203 38.416 198.111 37.9083C198.019 37.0623 197.743 36.2162 197.468 35.3702C197.376 34.9471 197.1 34.6087 196.732 34.3549C196.456 34.3549 196.272 34.4395 196.088 34.6933C195.904 34.9471 195.812 35.2009 195.72 35.4548C195.72 35.7932 195.628 36.1316 195.352 36.3854C195.076 36.6392 194.709 36.7239 194.341 36.7239C194.157 36.7239 193.881 36.6392 193.789 36.47C193.697 36.3854 193.605 36.2162 193.513 36.1316C193.421 35.9624 193.421 35.7932 193.421 35.624C193.421 35.4548 193.421 35.2009 193.329 35.0317C193.237 34.8625 193.237 34.6933 193.053 34.6087C192.961 34.4395 192.777 34.4395 192.593 34.4395C192.318 34.4395 192.134 34.5241 191.95 34.6933C191.766 34.8625 191.582 35.1163 191.398 35.3702C191.214 35.7086 191.122 36.047 190.938 36.3854C190.846 36.7239 190.662 37.1469 190.57 37.5699C190.478 37.993 190.386 38.3314 190.294 38.6698C190.202 39.0082 190.11 39.3467 190.019 39.6005C189.927 39.9389 189.835 40.2773 189.651 40.5311C189.559 40.785 189.375 41.0388 189.099 41.208C188.915 41.3772 188.731 41.4618 188.455 41.5464C188.271 41.631 187.995 41.5464 187.811 41.4618C187.536 41.2926 187.352 41.1234 187.26 40.9542C187.168 40.785 187.076 40.5311 186.984 40.2773C186.984 40.0235 186.984 39.7697 186.984 39.5159C186.984 39.262 187.076 39.0082 187.168 38.6698C187.26 38.5006 187.352 38.2468 187.444 37.993C187.536 37.7391 187.627 37.3161 187.719 36.9777C187.811 36.6392 187.903 36.1316 188.087 35.7086C188.271 35.2855 188.363 34.7779 188.455 34.3549C188.823 32.832 189.099 31.6475 189.467 30.463ZM214.848 32.4089C214.848 32.7474 214.848 33.1704 214.757 33.5088C214.665 33.8472 214.757 34.2703 214.665 34.5241C214.665 34.8625 214.665 35.1163 214.573 35.3702C214.481 35.624 214.573 35.7932 214.573 35.8778C214.573 36.047 214.573 36.3854 214.665 36.8085C214.665 37.2315 214.665 37.5699 214.665 37.9083C214.665 38.2468 214.573 38.5852 214.573 38.9236C214.481 39.262 214.389 39.6005 214.297 39.9389C214.205 40.2773 214.021 40.5311 213.745 40.785C213.561 41.0388 213.285 41.2926 212.917 41.3772C212.733 41.4618 212.457 41.5464 212.182 41.5464C211.998 41.5464 211.814 41.4618 211.722 41.2926C211.63 41.1234 211.538 40.9542 211.446 40.785C211.354 40.5311 211.354 40.3619 211.354 40.1081C211.354 39.8543 211.354 39.6005 211.354 39.4313C211.354 39.1774 211.446 39.0082 211.446 38.839C211.446 38.7544 211.446 38.5006 211.446 38.2468C211.446 37.993 211.446 37.6545 211.446 37.1469C211.446 36.6392 211.446 36.3008 211.446 35.9624C211.446 35.624 211.446 35.2855 211.446 35.0317C211.446 34.7779 211.354 34.6087 211.354 34.3549C211.354 34.2703 211.262 34.1011 211.17 34.1011C210.894 34.1857 210.71 34.2703 210.526 34.4395C210.25 34.6087 210.066 34.8625 209.791 35.1163C209.515 35.3702 209.331 35.624 209.147 35.8778C208.963 36.1316 208.779 36.47 208.595 36.7239C208.503 36.8931 208.319 37.1469 208.135 37.4007C207.951 37.6545 207.859 37.993 207.675 38.2468C207.491 38.5006 207.308 38.9236 207.124 39.262C206.94 39.6005 206.756 39.9389 206.48 40.2773C206.296 40.5311 206.02 40.785 205.744 40.9542C205.468 41.1234 205.192 41.2926 204.825 41.2926C204.457 41.3772 204.089 41.3772 203.721 41.208C203.537 41.0388 203.353 40.8696 203.261 40.6157C203.169 40.3619 203.169 40.0235 203.169 39.7697C203.169 39.5159 203.261 39.262 203.261 39.0082C203.261 38.839 203.261 38.5852 203.261 38.1622C203.261 37.7391 203.261 37.3161 203.261 36.9777C203.261 36.5546 203.261 36.1316 203.261 35.7086C203.261 35.2855 203.261 34.8625 203.169 34.4395C203.077 34.0165 203.077 33.678 203.077 33.3396C203.077 33.0858 202.985 32.832 202.985 32.5781C202.893 32.1551 202.893 31.7321 202.893 31.309C202.893 30.6322 202.801 30.1246 202.801 29.7861C202.801 29.4477 202.801 29.1093 202.801 28.8555C202.801 28.517 202.893 28.2632 202.985 27.9248C203.077 27.671 203.261 27.4172 203.445 27.1633C203.629 26.9095 203.997 26.8249 204.273 26.7403C204.733 26.5711 205.192 26.5711 205.652 26.6557C206.02 26.7403 206.296 26.9941 206.388 27.3325C206.572 27.671 206.664 28.094 206.664 28.4324C206.664 28.8555 206.664 29.3631 206.664 29.7861C206.664 30.2092 206.572 30.886 206.48 31.7321C206.388 32.6628 206.296 33.3396 206.204 33.7626C206.112 34.1011 206.112 34.4395 206.112 34.8625C206.112 35.1163 206.296 35.2855 206.48 35.2855C206.756 35.2855 207.032 35.2009 207.308 35.0317C207.583 34.8625 207.767 34.6933 207.951 34.4395C208.135 34.1857 208.319 33.9318 208.503 33.678C208.687 33.4242 208.779 33.1704 208.871 33.0012C208.963 32.832 209.055 32.5781 209.239 32.2397C209.423 31.9013 209.607 31.5629 209.882 31.1398C210.158 30.7168 210.342 30.2938 210.71 29.8707C211.078 29.4477 211.262 29.0247 211.538 28.6016C211.814 28.2632 212.09 27.9248 212.365 27.5864C212.549 27.3325 212.825 27.1633 213.101 26.9941C213.285 26.8249 213.653 26.8249 213.837 26.9095C214.113 26.9941 214.297 27.2479 214.389 27.4172C214.573 27.671 214.665 28.0094 214.665 28.3478C214.757 28.6863 214.757 29.0247 214.757 29.3631C214.94 30.5476 214.848 31.5629 214.848 32.4089ZM215.952 30.1246C215.952 29.8707 216.044 29.5323 216.228 29.2785C216.412 29.0247 216.688 28.8555 216.872 28.6863C217.24 28.4324 217.791 28.3478 218.251 28.3478C218.527 28.3478 218.803 28.3478 219.079 28.4324C219.263 28.517 219.447 28.6863 219.631 28.8555C219.723 29.0247 219.814 29.2785 219.906 29.5323C219.998 29.7861 219.998 30.04 219.998 30.2938C219.998 30.5476 219.998 30.8014 219.998 30.9706C219.998 31.1398 219.998 31.3937 219.998 31.4783C219.906 31.6475 219.906 31.9013 219.906 32.1551C219.906 32.3243 219.906 32.5781 219.998 32.7474C220.09 32.9166 220.182 33.0858 220.366 33.255C220.642 33.4242 221.01 33.5088 221.286 33.4242C221.654 33.4242 222.022 33.255 222.206 33.0012C222.389 32.6628 222.481 32.3243 222.481 31.9859C222.481 31.5629 222.481 31.2244 222.389 30.8014C222.297 30.3784 222.206 30.1246 222.206 29.8707C222.206 29.7015 222.206 29.5323 222.206 29.2785C222.206 29.0247 222.206 28.7709 222.206 28.517C222.206 28.2632 222.297 28.0094 222.389 27.7556C222.481 27.5018 222.573 27.2479 222.665 26.9941C222.849 26.7403 223.033 26.5711 223.217 26.4019C223.493 26.2327 223.769 26.0635 224.137 26.0635C224.413 25.9788 224.689 25.9788 224.964 26.0635C225.24 26.1481 225.424 26.3173 225.608 26.4865C225.792 26.7403 225.976 26.9095 226.068 27.1633C226.16 27.4172 226.344 27.671 226.436 27.9248C226.528 28.1786 226.62 28.4324 226.712 28.6863C226.804 28.9401 226.804 29.0247 226.896 29.1939C226.896 29.3631 226.896 29.7015 226.988 30.2092C227.08 30.6322 227.08 31.2244 227.172 31.8167C227.263 32.4089 227.355 33.0012 227.539 33.678C227.723 34.3549 227.815 34.9471 227.999 35.5394C228.183 36.1316 228.275 36.7239 228.459 37.3161C228.643 37.8237 228.643 38.3314 228.643 38.9236C228.643 39.3467 228.551 39.8543 228.275 40.1927C227.999 40.6157 227.539 40.9542 227.08 41.0388C226.712 41.1234 226.436 41.1234 226.068 41.1234C225.792 41.0388 225.516 40.9542 225.24 40.785C224.964 40.6157 224.78 40.4465 224.689 40.1927C224.413 39.7697 224.137 39.262 223.953 38.7544C223.861 38.5006 223.769 38.3314 223.677 38.1622C223.585 37.9083 223.493 37.6545 223.401 37.4853C223.309 37.2315 223.125 37.0623 222.941 36.8931C222.757 36.7239 222.573 36.6392 222.389 36.47C222.206 36.3854 221.93 36.3854 221.746 36.3854C221.562 36.3854 221.286 36.47 221.194 36.6392C221.01 36.8085 220.826 37.0623 220.734 37.2315C220.642 37.5699 220.55 37.9083 220.55 38.2468C220.55 38.6698 220.55 39.1774 220.642 39.6005C220.734 40.1081 220.826 40.6157 220.826 41.1234C220.826 41.5464 220.734 42.0541 220.55 42.4771C220.366 42.8155 220.182 43.1539 219.814 43.4924C219.447 43.7462 218.987 43.9154 218.527 43.9154C218.159 43.9154 217.791 43.8308 217.515 43.7462C217.24 43.577 216.964 43.4078 216.78 43.2385C216.596 42.9847 216.412 42.7309 216.32 42.4771C216.228 42.2233 216.136 41.8848 216.044 41.631C215.952 41.3772 215.952 41.0388 215.952 40.785C215.952 40.5311 215.952 40.2773 215.952 40.1081C215.952 39.9389 215.952 39.6851 216.044 39.3467C216.136 39.0082 216.044 38.5852 216.044 38.0776C216.044 37.5699 216.044 37.0623 216.044 36.47C216.044 35.8778 216.044 35.2855 216.044 34.7779C216.044 33.255 215.952 31.8167 215.952 30.1246ZM233.425 27.5018C233.517 27.5018 233.701 27.4172 233.977 27.3325C234.253 27.2479 234.437 27.1633 234.804 27.0787C235.172 26.9941 235.448 26.9095 235.816 26.7403C236.184 26.5711 236.552 26.4865 236.92 26.4019C237.195 26.3173 237.471 26.3173 237.747 26.4019C238.023 26.4865 238.207 26.6557 238.391 26.9095C238.575 27.1633 238.667 27.4172 238.759 27.7556C238.851 28.094 238.851 28.4324 238.851 28.7709C238.851 28.9401 238.851 29.1939 238.667 29.3631C238.575 29.5323 238.391 29.6169 238.299 29.7015C238.115 29.7861 237.931 29.8707 237.747 29.8707C237.563 29.8707 237.287 29.9553 237.103 29.9553C236.92 29.9553 236.644 29.9553 236.46 29.9553C236.276 29.9553 236.092 29.9553 236 30.04C235.816 30.04 235.724 30.1246 235.54 30.1246C235.356 30.1246 235.264 30.1246 235.08 30.2092C234.896 30.2938 234.804 30.3784 234.621 30.5476C234.437 30.8014 234.345 31.0552 234.253 31.309C233.609 35.2855 233.241 37.4007 233.241 37.6545C233.149 37.993 233.149 38.3314 233.057 38.6698C232.965 39.0082 232.965 39.4313 232.873 39.7697C232.781 40.1081 232.781 40.4465 232.689 40.785C232.689 41.1234 232.597 41.3772 232.597 41.631C232.597 41.8848 232.505 42.2233 232.413 42.4771C232.229 42.9001 231.678 43.2385 231.126 43.1539C230.85 43.1539 230.482 43.0693 230.206 42.9001C229.93 42.8155 229.655 42.6463 229.471 42.3925C229.287 42.1387 229.195 41.9694 229.103 41.631C229.011 41.3772 229.011 41.1234 229.011 40.8696C229.011 40.6157 229.103 40.4465 229.195 40.1927C229.287 39.9389 229.379 39.6851 229.379 39.4313C229.471 39.0928 229.563 38.5852 229.654 38.0776C229.746 37.5699 229.838 36.9777 229.93 36.3854C230.022 35.7932 230.114 35.1163 230.298 34.4395C230.482 33.7626 230.482 33.1704 230.666 32.4935C230.758 31.8167 230.85 31.2244 231.034 30.6322C231.126 30.2092 231.218 29.8707 231.31 29.5323C231.402 29.2785 231.586 28.9401 231.678 28.6863C231.77 28.4324 231.954 28.2632 232.137 28.094C232.229 27.9248 232.413 27.8402 232.597 27.671C232.689 27.671 233.057 27.5018 233.425 27.5018ZM250.07 34.9471C250.162 35.624 250.162 36.3854 250.07 37.0623C249.978 37.7391 249.702 38.416 249.427 39.0082C249.151 39.6005 248.783 40.1081 248.323 40.6157C247.955 41.0388 247.495 41.3772 247.035 41.631C246.76 41.8002 246.484 41.9694 246.116 42.0541C245.748 42.2233 245.472 42.3079 245.104 42.3925C244.736 42.4771 244.369 42.5617 244.001 42.4771C243.633 42.4771 243.173 42.3925 242.805 42.2233C242.345 42.0541 241.978 41.8002 241.61 41.4618C241.15 41.0388 240.69 40.6157 240.322 40.1081C240.046 39.6851 239.77 39.1774 239.586 38.6698C239.403 38.1622 239.311 37.7391 239.311 37.2315C239.219 36.7239 239.311 36.3008 239.311 35.7932C239.403 35.3702 239.403 34.8625 239.586 34.4395C239.862 33.4242 240.23 32.4089 240.69 31.4783C240.966 30.886 241.334 30.3784 241.886 30.04C242.345 29.7015 242.805 29.4477 243.357 29.3631C244.736 28.9401 246.208 29.1093 247.495 29.7861C248.047 30.1246 248.507 30.5476 248.875 31.0552C249.243 31.5629 249.518 32.1551 249.702 32.832C249.794 33.5934 249.886 34.2703 250.07 34.9471ZM246.024 39.3467C246.484 38.839 246.76 38.2468 246.944 37.5699C247.127 37.0623 247.219 36.47 247.219 35.9624C247.219 35.5394 247.127 35.0317 247.035 34.6087C246.944 34.2703 246.76 33.9318 246.576 33.678C246.392 33.4242 246.208 33.255 245.932 33.1704C245.748 33.0858 245.472 33.0012 245.288 32.9166C245.012 32.832 244.828 32.832 244.552 32.9166C244.185 33.0012 243.817 33.255 243.633 33.5088C243.357 33.8472 243.173 34.1857 242.989 34.6087C242.805 35.0317 242.713 35.3702 242.621 35.7932C242.529 36.2162 242.437 36.47 242.345 36.7239C242.161 37.2315 242.161 37.8237 242.253 38.3314C242.345 38.7544 242.529 39.262 242.897 39.6005C243.081 39.7697 243.265 39.9389 243.449 40.1081C243.725 40.1927 243.909 40.2773 244.185 40.2773C244.461 40.2773 244.828 40.1927 245.104 40.1081C245.38 39.8543 245.748 39.6851 246.024 39.3467Z" fill="#F8F2EF"/>
<path d="M0 9.03892H1.59305V6.07706H3.27627C5.3073 6.07706 6.39796 4.86149 6.39796 3.17511C6.39796 1.50157 5.32018 0.273165 3.29774 0.273165H0V9.03892ZM1.59305 4.77161V1.60001H3.05298C4.2467 1.60001 4.77485 2.24204 4.77485 3.17511C4.77485 4.10818 4.2467 4.77161 3.06157 4.77161H1.59305Z" fill="#CB997E"/>
<path d="M13.4931 9.03892L14.2187 6.87744H17.5251L18.255 9.03892H19.9554L16.8552 0.273165H14.8886L11.7927 9.03892H13.4931ZM14.6481 5.60196L15.8376 2.07083H15.9063L17.0957 5.60196H14.6481Z" fill="#CB997E"/>
<path d="M29.7461 9.15877C31.6268 9.15877 32.9966 8.08445 32.9923 6.60351C32.9966 5.50779 32.3095 4.72025 31.0772 4.54476V4.47628C32.0304 4.27083 32.6702 3.5646 32.6659 2.58017C32.6702 1.24476 31.5281 0.15332 29.7718 0.15332C28.0629 0.15332 26.7403 1.16772 26.706 2.63581H28.2389C28.2647 1.89962 28.9517 1.44165 29.7632 1.44165C30.5834 1.44165 31.1287 1.93814 31.1244 2.67433C31.1287 3.44048 30.4932 3.94982 29.5829 3.94982H28.8057V5.17394H29.5829C30.695 5.17394 31.3563 5.73036 31.352 6.52219C31.3563 7.2969 30.6822 7.82764 29.7418 7.82764C28.8572 7.82764 28.1745 7.36966 28.1358 6.65488H26.5213C26.5643 8.13581 27.8911 9.15877 29.7461 9.15877Z" fill="#CB997E"/>
<path d="M40.1142 9.03892H41.7073V6.07706H43.3905C45.4215 6.07706 46.5122 4.86149 46.5122 3.17511C46.5122 1.50157 45.4344 0.273165 43.412 0.273165H40.1142V9.03892ZM41.7073 4.77161V1.60001H43.1672C44.3609 1.60001 44.8891 2.24204 44.8891 3.17511C44.8891 4.10818 44.3609 4.77161 43.1758 4.77161H41.7073Z" fill="#CB997E"/>
<path d="M53.6073 9.03892L54.333 6.87744H57.6393L58.3693 9.03892H60.0697L56.9695 0.273165H55.0028L51.9069 9.03892H53.6073ZM54.7624 5.60196L55.9518 2.07083H56.0205L57.2099 5.60196H54.7624Z" fill="#CB997E"/>
<path d="M66.7901 9.03892H70.0793C72.0974 9.03892 73.3083 7.9218 73.3083 6.30818C73.3083 4.69885 72.0974 3.65877 70.0793 3.65877H68.3832V1.60429H72.4453V0.273165H66.7901V9.03892ZM68.3832 7.73776V4.95137H70.0793C71.1442 4.95137 71.7325 5.5506 71.7325 6.29106C71.7325 7.06149 71.1442 7.73776 70.0793 7.73776H68.3832Z" fill="#CB997E"/>
<path d="M88.1218 4.65604C88.1218 1.82258 86.387 0.15332 84.0812 0.15332C81.7711 0.15332 80.0406 1.82258 80.0406 4.65604C80.0406 7.48523 81.7711 9.15877 84.0812 9.15877C86.387 9.15877 88.1218 7.48951 88.1218 4.65604ZM86.5202 4.65604C86.5202 6.6506 85.5154 7.73348 84.0812 7.73348C82.6513 7.73348 81.6423 6.6506 81.6423 4.65604C81.6423 2.66149 82.6513 1.57861 84.0812 1.57861C85.5154 1.57861 86.5202 2.66149 86.5202 4.65604Z" fill="#CB997E"/>
<path d="M94.4258 1.60429H97.1438V9.03892H98.724V1.60429H101.442V0.273165H94.4258V1.60429Z" fill="#CB997E"/>
<path d="M108.423 9.03892L109.149 6.87744H112.455L113.185 9.03892H114.886L111.786 0.273165H109.819L106.723 9.03892H108.423ZM109.578 5.60196L110.768 2.07083H110.837L112.026 5.60196H109.578Z" fill="#CB997E"/>
<path d="M121.606 9.03892H123.199V5.31519H127.274V9.03892H128.872V0.273165H127.274V3.98406H123.199V0.273165H121.606V9.03892Z" fill="#CB997E"/>
<path d="M144.024 4.65604C144.024 1.82258 142.289 0.15332 139.984 0.15332C137.673 0.15332 135.943 1.82258 135.943 4.65604C135.943 7.48523 137.673 9.15877 139.984 9.15877C142.289 9.15877 144.024 7.48951 144.024 4.65604ZM142.423 4.65604C142.423 6.6506 141.418 7.73348 139.984 7.73348C138.554 7.73348 137.545 6.6506 137.545 4.65604C137.545 2.66149 138.554 1.57861 139.984 1.57861C141.418 1.57861 142.423 2.66149 142.423 4.65604Z" fill="#CB997E"/>
<path d="M159.654 9.03892H163.214C165.228 9.03892 166.215 8.01597 166.215 6.6506C166.215 5.32375 165.27 4.54476 164.334 4.49768V4.41208C165.193 4.21091 165.872 3.61169 165.872 2.54593C165.872 1.24048 164.927 0.273165 163.02 0.273165H159.654V9.03892ZM161.247 7.71207V5.14398H163.003C163.987 5.14398 164.596 5.7432 164.596 6.52647C164.596 7.22414 164.115 7.71207 162.96 7.71207H161.247ZM161.247 4.00118V1.58289H162.857C163.793 1.58289 164.279 2.07511 164.279 2.75137C164.279 3.5218 163.652 4.00118 162.823 4.00118H161.247Z" fill="#CB997E"/>
<path d="M189.252 3.23075C188.981 1.28328 187.479 0.15332 185.529 0.15332C183.232 0.15332 181.501 1.82258 181.501 4.65604C181.501 7.48523 183.21 9.15877 185.529 9.15877C187.62 9.15877 189.007 7.81052 189.252 6.13698L187.646 6.12842C187.444 7.15565 186.603 7.73348 185.551 7.73348C184.125 7.73348 183.103 6.66772 183.103 4.65604C183.103 2.67861 184.116 1.57861 185.555 1.57861C186.624 1.57861 187.461 2.18211 187.646 3.23075H189.252Z" fill="#CB997E"/>
<path d="M195.887 1.60429H198.605V9.03892H200.185V1.60429H202.903V0.273165H195.887V1.60429Z" fill="#CB997E"/>
<path d="M210.603 9.15877H211.23C212.639 9.15877 213.158 8.34554 213.575 7.42102L216.606 0.273165H214.966L213.072 4.96422L210.882 0.273165H209.216L212.36 6.71908L212.244 7.01441C212.063 7.50663 211.788 7.82336 211.106 7.82336H210.603V9.15877Z" fill="#CB997E"/>
<path d="M222.732 11.1533H224.261V9.03892H229.864V11.1448H231.393V7.74204H230.414V0.273165H224.793L224.561 3.97978C224.42 6.34243 223.917 7.27122 223.32 7.74204H222.732V11.1533ZM225.175 7.74204C225.643 6.97589 225.983 5.77316 226.09 3.97978L226.227 1.60429H228.885V7.74204H225.175Z" fill="#CB997E"/>
<path d="M238.249 0.273165V9.03892H239.666L243.809 3.06811H243.882V9.03892H245.475V0.273165H244.05L239.91 6.24826H239.833V0.273165H238.249Z" fill="#CB997E"/>
<path d="M252.773 0.273165V9.03892H254.19L258.334 3.06811H258.407V9.03892H260V0.273165H258.574L254.435 6.24826H254.358V0.273165H252.773Z" fill="#CB997E"/>
</svg>
