<svg width="761" height="910" viewBox="0 0 761 910" fill="none" xmlns="http://www.w3.org/2000/svg">
<path d="M574.689 444.747C578.975 567.476 551.553 679.656 503.778 761.811C456 843.973 387.912 896.04 310.873 898.73C233.833 901.421 162.279 854.23 108.886 775.601C55.4967 696.978 20.3158 586.985 16.03 464.255C11.7442 341.526 39.1667 229.346 86.9411 147.191C134.719 65.0295 202.807 12.9621 279.847 10.2718C356.887 7.58149 428.441 54.7725 481.834 133.401C535.223 212.024 570.404 322.017 574.689 444.747Z" stroke="#CB997E"/>
<path d="M744.756 460.416C740.469 583.18 717.579 693.635 684.052 772.972C667.288 812.642 647.876 844.507 626.822 866.242C605.768 887.977 583.114 899.542 559.847 898.73C536.579 897.917 514.788 884.8 495.301 861.649C475.814 838.499 458.672 805.357 444.716 764.614C416.806 683.132 401.676 571.349 405.963 448.585C410.25 325.822 433.14 215.367 466.667 136.029C483.431 96.359 502.843 64.4941 523.897 42.7593C544.951 21.0244 567.605 9.45897 590.872 10.2715C614.14 11.084 635.932 24.2015 655.418 47.3521C674.905 70.5027 692.047 103.644 706.003 144.387C733.913 225.87 749.043 337.653 744.756 460.416Z" stroke="#CB997E"/>
</svg>
