<svg width="59" height="46" viewBox="0 0 59 46" fill="none" xmlns="http://www.w3.org/2000/svg">
<circle cx="22.9991" cy="23" r="23" fill="#F2E6DE"/>
<path d="M15.9991 41.6972C15.9991 45.5798 27.5326 46 32.4888 46C38.6293 46 43.619 45.4033 46.3407 44.3529C47.3319 45.3277 48.6508 45.916 50.0368 46C50.6164 46 50.5996 45.9664 54.3797 45.1176C56.4462 44.6554 57.9582 42.5124 58.6302 39.0921C59.2434 35.3103 59.0922 31.4446 58.1766 27.7217C56.1857 18.8977 51.406 12.7125 47.2899 13.6369L43.7954 14.4269C42.3254 14.7546 41.1746 15.9564 40.385 17.7464C35.2356 16.3429 34.6812 20.1835 29.7251 19.4692C25.3906 18.8473 25.3234 13.931 25.3234 13.721C25.3234 13.4184 25.1302 13.1411 24.8446 13.0402C24.559 12.9394 24.2314 13.0318 24.0465 13.2755C23.8869 13.4772 20.5353 17.8304 21.2073 23.0576C17.2844 23.6795 16.7132 24.461 16.7132 25.209V27.6461C16.2932 27.873 16.0159 28.31 15.9991 28.7974V41.6972ZM23.1225 27.6125C28.5155 28.1419 33.9336 28.2175 39.3433 27.8394C39.4189 28.5537 39.5113 29.2848 39.6457 30.0328C34.8744 30.3101 22.2993 30.4698 18.158 29.0411V26.646C19.7624 27.1586 21.4341 27.4864 23.1225 27.6125ZM17.4356 41.6972V33.1338C20.4597 33.9573 23.5761 34.4279 26.7094 34.5288C26.9614 34.5456 27.2134 34.4195 27.3562 34.2094C27.499 33.9994 27.5158 33.722 27.3982 33.4951C27.2806 33.2682 27.0538 33.117 26.8018 33.1001C21.5601 32.7724 18.8468 32.1505 17.4356 31.6295V30.3101C21.7449 31.9656 35.0256 31.7555 39.9229 31.4614C40.7882 35.4952 42.5018 40.1257 45.2235 43.2436C42.569 44.0923 38.0329 44.5714 32.4888 44.5714C22.1061 44.5714 17.4356 42.8906 17.4356 41.6972ZM56.7738 28.0411C57.6474 31.5707 57.7986 35.2347 57.219 38.8231C56.673 41.6132 55.5221 43.3948 54.0605 43.7226C51.1876 44.3697 46.8195 39.2938 44.8875 30.7219C42.9554 22.15 44.7363 15.6874 47.6091 15.0403C47.7771 15.0067 47.9451 14.9815 48.1131 14.9815C50.9692 14.9815 54.9593 19.9566 56.7738 28.0411ZM44.1062 15.8303L44.5431 15.7295C40.0741 22.5029 44.0558 40.2182 51.0028 44.4117L50.566 44.5125C49.1044 44.8403 47.2983 43.7226 45.6099 41.4367C43.5518 38.445 42.1154 35.0666 41.393 31.5118C41.057 30.0159 40.8218 28.4949 40.6874 26.9654C40.1665 20.7297 41.771 16.3513 44.1062 15.8303ZM23.2485 17.822C23.3241 21.1247 24.9454 23.4442 27.9526 24.4526C28.3307 24.5787 28.7339 24.377 28.8599 23.9988C28.9859 23.6206 28.7843 23.2173 28.4063 23.0912C25.3234 22.0659 24.6094 19.5532 24.685 17.2506C25.5334 19.2339 27.373 20.6205 29.5151 20.8978C34.9416 21.6794 35.5128 18.0153 39.8809 19.1078C39.2425 21.4861 39.0241 23.9568 39.2173 26.4107C34.0428 26.7721 28.8431 26.7132 23.6685 26.2258C22.3245 23.6206 22.1733 20.5533 23.2485 17.822ZM21.4845 24.461C21.6273 24.9905 21.8037 25.5115 22.0137 26.0241C20.7873 25.8981 19.586 25.6208 18.4268 25.209C19.4096 24.8392 20.4429 24.5871 21.4845 24.461Z" fill="#CB997E"/>
<path d="M29.6159 34.5288C30.0102 34.5288 30.3299 34.209 30.3299 33.8145C30.3299 33.42 30.0102 33.1001 29.6159 33.1001C29.2215 33.1001 28.9019 33.42 28.9019 33.8145C28.9019 34.209 29.2215 34.5288 29.6159 34.5288Z" fill="#CB997E"/>
<path d="M46.2063 23.9652C46.2483 24.3602 46.6011 24.6459 46.9875 24.6039C47.3823 24.5619 47.6679 24.2089 47.6259 23.8223C47.2815 20.402 47.9703 19.3179 48.4156 18.9733C48.7432 18.7464 49.1464 18.696 49.5244 18.8221C49.894 18.9565 50.2972 18.78 50.44 18.4103C50.5828 18.0489 50.4064 17.6371 50.0452 17.4859C49.2136 17.1749 48.2812 17.301 47.5587 17.8136C46.3491 18.738 45.8871 20.8054 46.2063 23.9652Z" fill="#CB997E"/>
<path d="M52.1956 40.2182C53.0273 40.5291 53.9597 40.4031 54.6821 39.8904C55.9001 38.9744 56.3622 36.9071 56.0429 33.7472C56.0009 33.3523 55.6481 33.0665 55.2617 33.1086C54.8669 33.1506 54.5813 33.5035 54.6233 33.8901C54.9677 37.3105 54.2789 38.3946 53.8337 38.7391C53.5145 38.966 53.1029 39.0164 52.7249 38.8904C52.4897 38.7979 52.2124 38.84 52.0192 38.9996C51.8176 39.1593 51.7168 39.4114 51.7588 39.6635C51.7924 39.9072 51.9604 40.1257 52.1956 40.2182Z" fill="#CB997E"/>
</svg>
