<svg width="59" height="46" viewBox="0 0 59 46" fill="none" xmlns="http://www.w3.org/2000/svg">
<circle cx="22.9991" cy="23" r="23" fill="#F2E6DE"/>
<path d="M54.6933 20.3725C55.7842 15.3946 54.2587 10.3183 54.1931 10.0969C54.1028 9.78525 53.8076 9.58023 53.4795 9.60483C53.1023 9.62944 44.2282 10.2035 40.2259 15.9605C39.7912 16.6083 39.4221 17.2972 39.1187 18.0189C38.7496 18.0107 38.3723 18.0025 37.995 18.0025C27.817 18.0025 16.9991 20.2085 16.9991 24.3007C16.9991 31.6486 22.4614 37.9468 30.179 40.5383C28.8586 40.9483 28.0384 42.2522 28.2434 43.6218C28.4485 44.9831 29.6213 46 30.9991 46H44.9991C46.377 46 47.5498 44.9913 47.7549 43.6218C47.9599 42.2604 47.1397 40.9483 45.8193 40.5383C53.5369 37.9468 58.9991 31.6404 58.9991 24.3007C58.9991 22.7753 57.5393 21.455 54.6933 20.3725ZM52.4133 25.2848C53.4467 25.5636 54.4473 25.9408 55.4151 26.4001C53.3155 27.3514 51.0929 27.9992 48.8129 28.3355C50.1907 27.5482 51.4209 26.5149 52.4133 25.2848ZM57.5967 24.3007C57.5147 24.8173 57.2276 25.2684 56.7847 25.5554C55.6693 24.9321 54.4883 24.4401 53.2663 24.0875C53.701 23.3412 54.0536 22.5539 54.3243 21.7338C56.3829 22.5293 57.5967 23.4724 57.5967 24.3007ZM53.0038 11.0564C54.0044 15.0748 54.1849 20.9301 51.6014 24.0793C49.5838 26.8757 46.1228 28.2863 43.5475 28.9751C42.7929 29.0325 42.0466 29.0817 41.3085 29.1145C42.875 26.8593 43.8263 25.4898 44.4168 24.6369C45.0976 24.6533 47.2792 24.6943 47.2054 24.6943C47.5908 24.6943 47.9107 24.3909 47.9107 23.9972C47.9107 23.6118 47.6072 23.292 47.2136 23.292L45.3682 23.2592C45.6471 22.8573 45.5404 23.0049 46.8937 21.0532C47.5744 21.0696 49.756 21.1024 49.6822 21.1024C50.0677 21.1024 50.3876 20.7989 50.3876 20.4135C50.3876 20.0281 50.0841 19.7082 49.6986 19.7082L47.8533 19.6754C48.5258 18.6995 49.4116 17.4284 50.6008 15.7226C50.8222 15.4028 50.7402 14.9682 50.4204 14.7467C50.1005 14.5253 49.6658 14.6073 49.4444 14.9272L46.7051 18.8717L46.0325 17.166C45.9423 16.9364 45.7291 16.7641 45.483 16.7313C45.237 16.6985 44.9909 16.7887 44.8351 16.9856C44.6793 17.1824 44.6383 17.4448 44.7285 17.6744L45.7455 20.2495C44.4578 22.1029 44.5153 22.0208 44.2118 22.4555L43.5393 20.7415C43.3999 20.3807 42.9898 20.2085 42.6289 20.3479C42.268 20.4873 42.0958 20.8973 42.2352 21.2582L43.2522 23.8414L39.8732 28.7045C39.0776 24.7599 39.0858 20.0609 41.3741 16.7559C44.4496 12.3439 51.0437 11.2778 53.0038 11.0564ZM38.5528 29.1884C33.4678 29.2294 25.1351 28.6307 20.5996 26.3919C25.0202 24.2105 33.0905 23.5954 38.0197 23.5954C37.9786 25.4734 38.1591 27.3514 38.5528 29.1884ZM38.0032 19.3966C38.2165 19.3966 38.4133 19.4048 38.6266 19.4048C38.3723 20.3151 38.2001 21.25 38.1099 22.1931C32.8527 22.1931 23.749 22.8573 19.2218 25.5472C18.7871 25.2602 18.4836 24.8091 18.4098 24.2925C18.4098 22.2505 25.865 19.3966 38.0032 19.3966ZM44.9991 41.793C45.7701 41.793 46.4016 42.4162 46.4016 43.1953C46.4016 43.9744 45.7783 44.5977 44.9991 44.5977H31.0073C30.2364 44.5977 29.6049 43.9744 29.6049 43.1953C29.6049 42.4162 30.2282 41.793 31.0073 41.793H44.9991ZM38.0032 40.3907C28.268 40.3907 20.1731 34.5271 18.6641 26.8839C23.1339 30.0576 33.9189 30.7137 39.3975 30.5743C39.9634 30.6071 43.7935 30.3529 43.8837 30.3365C47.8451 30.0084 54.1192 29.1802 57.3506 26.8839C55.8334 34.5353 47.7385 40.3907 38.0032 40.3907Z" fill="#CB997E"/>
<path d="M28.5879 14.5745C28.2434 14.7467 28.104 15.1732 28.2762 15.5176C28.4485 15.862 28.875 16.0015 29.2194 15.8292C29.3506 15.7636 32.4016 14.2055 32.4016 11.7042C32.4016 9.2194 29.6049 9.07178 29.6049 7.50543C29.6049 5.98008 31.8521 5.38962 31.8767 5.38142C32.254 5.29121 32.4754 4.90577 32.3852 4.52853C32.295 4.1513 31.9095 3.92988 31.5322 4.02008C31.3928 4.05289 28.2024 4.88117 28.2024 7.49723C28.2024 9.98207 30.9991 10.1297 30.9991 11.696C31.0073 13.0574 29.2604 14.2383 28.5879 14.5745Z" fill="#CB997E"/>
<path d="M36.2891 14.5745C35.9447 14.7467 35.8052 15.1732 35.9775 15.5176C36.1497 15.862 36.5762 16.0015 36.9206 15.8292C37.0519 15.7636 40.1028 14.2055 40.1028 11.7042C40.1028 9.2194 37.3061 9.07178 37.3061 7.50543C37.3061 5.98008 39.5533 5.38962 39.5779 5.38142C39.9552 5.29121 40.1767 4.90577 40.0864 4.52853C39.9962 4.1513 39.6107 3.92988 39.2335 4.02008C39.0941 4.05289 35.9037 4.88117 35.9037 7.49723C35.9037 9.98207 38.7004 10.1297 38.7004 11.696C38.7004 13.0574 36.9617 14.2383 36.2891 14.5745Z" fill="#CB997E"/>
</svg>
