<svg width="59" height="46" viewBox="0 0 59 46" fill="none" xmlns="http://www.w3.org/2000/svg">
<circle cx="22.9991" cy="23" r="23" fill="#F2E6DE"/>
<path d="M36.0191 37.2347C34.5277 36.2766 32.5365 36.7099 31.5783 38.2012C30.6202 39.6926 31.0451 41.6838 32.5365 42.6503C34.0278 43.6167 36.0191 43.1835 36.9855 41.6921C37.4521 40.9756 37.6104 40.1008 37.4354 39.2677C37.2438 38.4262 36.7356 37.693 36.0191 37.2347ZM35.8108 40.9256C35.2526 41.7505 34.1445 41.9921 33.2946 41.4672C32.4531 40.9256 32.2115 39.8009 32.7531 38.9511C33.2946 38.1096 34.4194 37.8679 35.2692 38.4095C36.1024 38.9594 36.3523 40.0841 35.8108 40.9256Z" fill="#CB997E"/>
<path d="M23.0468 24.904C21.5804 24.904 20.3057 25.8954 19.9391 27.3118C19.5725 28.7282 20.2057 30.2112 21.4888 30.9277C22.7718 31.6442 24.3632 31.4026 25.3796 30.3445C26.3961 29.2864 26.5627 27.6784 25.7962 26.437C25.2046 25.4789 24.1632 24.904 23.0468 24.904ZM24.0049 29.678C23.1467 30.1862 22.0386 29.9196 21.4971 29.0781C20.9722 28.22 21.2388 27.1035 22.097 26.5786C22.9551 26.0537 24.0716 26.3204 24.5964 27.1702C25.1213 28.0283 24.8547 29.1448 24.0049 29.678Z" fill="#CB997E"/>
<path d="M55.9566 33.0023C54.7402 30.9527 54.0986 28.6115 54.0986 26.2287V15.1893C54.0903 9.01562 49.083 4.00833 42.901 4H23.3217C22.9385 4 22.6219 4.3166 22.6219 4.69985C22.6135 8.22412 24.0132 11.6067 26.5127 14.0979C29.0039 16.5974 32.3865 17.9971 35.9108 17.9888C36.5273 17.9888 37.1522 18.0471 37.7604 18.172C37.1105 19.4051 36.5689 20.5382 36.0774 21.5963C35.5692 22.6711 35.0859 23.6959 34.536 24.7124C32.4698 23.8042 30.112 23.8542 28.0874 24.854C26.4877 22.3878 23.3467 21.4297 20.6473 22.5878C17.9478 23.7459 16.4815 26.6786 17.1647 29.5363C17.8562 32.3941 20.5056 34.3353 23.4384 34.1354C26.3711 33.9354 28.7289 31.6526 29.0205 28.7282C30.5202 28.0117 32.2448 27.945 33.7862 28.5532C34.2361 30.0112 34.7777 31.9525 33.5862 33.9604C33.3863 33.9854 33.1947 34.0187 32.9947 34.0604C30.1869 34.6686 28.204 37.1681 28.254 40.0425C28.304 42.9086 30.3702 45.3497 33.1947 45.8579C36.0191 46.3745 38.8101 44.8165 39.8599 42.1504C40.9097 39.4843 39.9349 36.4432 37.5271 34.8852C37.5104 34.8769 37.4938 34.8686 37.4854 34.8602C38.6435 32.819 38.7352 30.3445 37.7437 28.22C39.1351 27.4201 40.5681 26.7036 42.0428 26.0787C43.0259 25.6372 44.0424 25.1789 45.1672 24.6124C45.5254 25.6372 45.7087 26.7036 45.7087 27.7867V29.1864C45.717 33.8188 49.4663 37.5763 54.0986 37.5763H58.2978C58.5894 37.5763 58.856 37.393 58.956 37.1181C59.0559 36.8432 58.9726 36.5349 58.756 36.3433C57.6312 35.3851 56.6898 34.2604 55.9566 33.0023ZM52.6989 15.1893V26.2204C52.6989 28.4282 53.2071 30.6111 54.1653 32.6024C51.7075 32.4191 50.5994 31.5276 50.5994 26.3703C50.6077 24.629 50.3078 22.8961 49.7079 21.2547C49.3496 20.2549 48.8747 19.3051 48.2998 18.4137C47.4084 17.0473 46.2586 15.8559 44.9172 14.9144L46.9918 11.5484C47.9999 12.1733 48.5831 13.3064 48.4998 14.4895C48.4998 14.8727 48.8164 15.1893 49.1996 15.1893C49.5829 15.1893 49.8995 14.8727 49.8995 14.4895C49.8995 8.89898 43.0759 8.89898 39.41 8.89898C37.8603 8.89898 36.7189 8.49073 36.0191 7.6909C35.4942 7.04103 35.2026 6.23287 35.1942 5.39971H42.9093C48.3082 5.40804 52.6906 9.78213 52.6989 15.1893ZM41.0014 13.0231C39.5767 12.5982 38.0936 12.3899 36.6106 12.3899C30.3286 12.3899 28.7206 7.35763 28.329 5.39971H33.7862C33.7945 6.56613 34.2111 7.69923 34.9443 8.59904C35.9191 9.72381 37.4188 10.2987 39.4017 10.2987C40.993 10.2737 42.576 10.3737 44.1507 10.607C42.9176 11.1235 41.8262 11.9567 41.0014 13.0231ZM35.9108 16.589C32.7531 16.5974 29.7287 15.3393 27.5042 13.1064C25.4379 11.0485 24.2049 8.30744 24.0466 5.39971H26.921C27.3042 7.46594 29.0955 13.7896 36.6106 13.7896C37.7854 13.7896 38.9601 13.9313 40.1099 14.2145C40.0266 14.3395 39.9432 14.4478 39.8599 14.5811C39.335 15.3976 38.8768 16.1558 38.4602 16.889C37.6271 16.689 36.7689 16.589 35.9108 16.589ZM25.4713 32.0608C23.2967 33.3939 20.4556 32.719 19.1226 30.5445C17.7895 28.3699 18.4644 25.5288 20.6306 24.1958C22.7968 22.8627 25.6462 23.5376 26.9793 25.7038C27.6291 26.7453 27.8374 28.0033 27.5542 29.1947C27.2709 30.3945 26.521 31.4193 25.4713 32.0608ZM28.9872 27.1868C28.9289 26.8119 28.8372 26.4537 28.7039 26.0954C30.3036 25.3122 32.1615 25.2456 33.8195 25.9121C33.7445 26.0371 33.6779 26.1537 33.6029 26.2787C33.4696 26.4953 33.4113 26.7369 33.4279 26.9869C31.9616 26.587 30.4119 26.6536 28.9872 27.1868ZM38.152 42.442C37.0189 44.1916 34.8526 44.9665 32.8614 44.3333C30.8701 43.6917 29.5621 41.8005 29.6621 39.7176C29.762 37.6347 31.2534 35.8767 33.2946 35.4351C33.6196 35.3685 33.9528 35.3268 34.2778 35.3268C35.9691 35.3351 37.5187 36.2599 38.3269 37.743C39.1351 39.2177 39.0684 41.0173 38.152 42.442ZM35.1526 33.9938C36.2107 31.6276 35.5192 29.3947 35.0859 27.9867L35.0276 27.795C34.936 27.5284 34.8693 27.2535 34.8276 26.9785C35.0276 26.6703 35.2109 26.362 35.3859 26.0537C35.4025 26.0287 35.4192 26.0037 35.4359 25.9788C36.1524 24.729 36.7356 23.4959 37.3521 22.1879C38.4186 19.8217 39.6516 17.5305 41.043 15.3393C42.776 12.6399 44.309 11.8984 45.2421 11.7317L43.4009 14.7311L43.3925 14.7394V14.7478L41.0347 18.597L41.0264 18.6053C41.0264 18.6053 41.0264 18.6136 41.018 18.622L40.7347 19.0719L36.244 27.7367C36.1274 27.9617 36.144 28.2283 36.2773 28.4366C37.2938 30.2529 37.2688 32.4607 36.2107 34.252C35.8691 34.1354 35.5192 34.0437 35.1526 33.9938ZM41.8345 19.9883C42.1928 20.2549 42.526 20.5549 42.8426 20.8715L40.6931 22.1879L41.8345 19.9883ZM41.4763 24.7873C40.5348 25.2039 39.6183 25.6288 38.6685 26.1121L39.46 24.5874L43.7674 21.9296C44.0924 22.3628 44.3757 22.8211 44.6256 23.3043C43.4925 23.8875 42.4594 24.3458 41.4763 24.7873ZM54.0903 36.1683C50.2328 36.16 47.1001 33.0356 47.1001 29.1781V27.7784C47.1084 24.2291 45.4171 20.8881 42.551 18.7886L44.184 16.1225C45.3421 16.9556 46.3419 17.9888 47.1167 19.1885C47.6333 19.9883 48.0582 20.8465 48.3832 21.7463C48.9247 23.2377 49.1913 24.804 49.1913 26.387C49.1913 32.6524 50.9826 33.9021 54.9568 34.0521C55.4234 34.8102 55.9566 35.5184 56.5481 36.1766H54.0903V36.1683Z" fill="#CB997E"/>
</svg>
