<svg width="59" height="46" viewBox="0 0 59 46" fill="none" xmlns="http://www.w3.org/2000/svg">
<circle cx="22.9991" cy="23" r="23" fill="#F2E6DE"/>
<path d="M22.0725 45.9915H31.0457C32.1889 45.9915 33.1183 45.0501 33.1183 43.8921V33.0618C33.1512 30.7457 32.1314 28.5463 30.3548 27.0801C30.3548 22.8312 30.3548 23.7477 30.3466 23.5394C30.6427 23.1978 30.4864 23.4227 32.156 20.7402C32.9703 19.4322 32.5837 17.7077 31.3007 16.8829L33.5131 13.3339C35.3554 14.5085 35.4706 14.6752 35.997 14.6752C36.474 14.6752 36.9099 14.4336 37.1649 14.0253L39.3773 10.4763C40.1833 9.21 40.2656 7.60211 39.5747 6.26082C38.8838 4.92785 37.5432 4.06142 36.0545 4.00311C34.5659 3.94479 33.1594 4.71124 32.3781 5.99422L30.1656 9.54324C29.9683 9.85982 29.9025 10.2347 29.9847 10.6013C30.067 10.9679 30.2808 11.2761 30.5933 11.476L32.3452 12.5924L30.1327 16.1414C29.5159 15.7415 28.7674 15.6166 28.0519 15.7749C27.3364 15.9415 26.7195 16.383 26.3247 17.0079L24.8525 19.3739C24.5564 19.8404 24.0958 20.1736 23.5612 20.2986C23.0266 20.4236 22.4673 20.3236 21.9985 20.0237C21.7929 19.8904 21.5297 19.8821 21.3076 19.9987C21.0856 20.1153 20.9458 20.3403 20.9375 20.5902C20.9293 20.8401 21.0527 21.0734 21.2583 21.2067L23.2898 22.5063C22.969 22.7813 22.7716 23.1895 22.7634 23.6144V27.0801C20.9869 28.538 19.967 30.7457 19.9999 33.0618V43.9004C19.9999 45.0584 20.9293 45.9915 22.0725 45.9915ZM33.546 6.73569C34.3685 5.45271 36.0545 5.08614 37.3376 5.90258C38.6206 6.71902 39.0072 8.42689 38.2176 9.72653L36.0052 13.2755L31.3336 10.2847L33.546 6.73569ZM26.0122 20.1153L27.4844 17.7493C27.8956 17.0995 28.7428 16.9079 29.3843 17.3161L30.5604 18.0659C31.202 18.4824 31.3994 19.3405 30.9881 19.9987C29.5159 22.348 29.483 22.4813 29.1458 22.7979C28.4631 23.4311 27.4433 23.5227 26.6619 23.0229L24.3261 21.5316C25.0252 21.2483 25.6174 20.7568 26.0122 20.1153ZM25.9135 24.1892C26.8264 24.7807 27.9614 24.8973 28.9731 24.4975V33.4117C28.9731 34.1864 28.3562 34.8113 27.5913 34.8113H25.5269C24.762 34.8113 24.1452 34.1864 24.1452 33.4117V23.631C24.2439 23.4894 24.3919 23.3811 24.5564 23.3144L25.9135 24.1892ZM21.3817 33.0618C21.3652 31.5955 21.8587 30.1626 22.7634 29.0212V33.4117C22.7634 34.9529 23.9971 36.2109 25.5269 36.2109H27.5995C29.1211 36.2109 30.363 34.9612 30.363 33.4117V29.0295C31.2678 30.1709 31.753 31.5955 31.7448 33.0618V43.9004C31.7448 44.2837 31.4323 44.6002 31.0539 44.6002H22.0725C21.6942 44.6002 21.3817 44.2837 21.3817 43.9004V33.0618Z" fill="#CB997E"/>
<path d="M23.4543 41.801H29.6639C30.0423 41.801 30.3548 41.4844 30.3548 41.1012C30.3548 40.718 30.0423 40.4014 29.6639 40.4014H23.4543C23.076 40.4014 22.7634 40.718 22.7634 41.1012C22.7634 41.4844 23.0677 41.801 23.4543 41.801Z" fill="#CB997E"/>
<path d="M42.5767 22.7479C39.8543 28.0215 34.7879 39.9599 37.9133 45.0584C38.2917 45.65 38.9414 46.0082 39.6405 45.9999H56.2873C56.9864 46.0082 57.6361 45.6583 58.0145 45.0668C61.1399 39.9682 56.0652 28.0048 53.3511 22.7563C55.4073 9.90981 55.2181 11.1345 55.2181 11.0178C55.2016 9.32664 52.6602 7.53547 47.9721 7.53547C43.284 7.53547 40.7262 9.32664 40.7097 11.0095C40.7097 11.1428 40.6357 10.6013 42.5767 22.7479ZM56.8384 44.3253C56.715 44.5086 56.5011 44.6086 56.2873 44.6002H39.6405C39.4184 44.6086 39.2128 44.5086 39.0894 44.3253C36.4822 40.0765 40.8578 29.1462 43.6871 23.6227H52.2407C55.07 29.1378 59.4374 40.0682 56.8384 44.3253ZM47.9557 8.93508C51.9858 8.93508 53.7459 10.368 53.8199 10.9928C53.0714 15.6249 53.4251 13.4505 52.0269 22.2231H46.8289L45.5294 13.0339C45.4965 12.784 45.332 12.5757 45.1017 12.4841C44.8714 12.3925 44.6082 12.4258 44.4191 12.5841C44.2217 12.7424 44.1312 12.984 44.1641 13.2339L45.4307 22.2231H43.8762L42.0915 10.9928C42.1655 10.368 43.9256 8.93508 47.9557 8.93508Z" fill="#CB997E"/>
<path d="M47.0756 35.5028C44.9125 35.5028 43.6377 34.4447 42.4122 32.9868C42.2642 32.7618 42.001 32.6452 41.7296 32.6869C41.4664 32.7285 41.2525 32.9201 41.1785 33.1784C40.208 36.1859 39.1964 40.2681 39.8708 42.6841C39.953 42.984 40.2245 43.1923 40.537 43.1923H55.3826C55.6869 43.1923 55.9583 42.984 56.0488 42.6841C56.4765 41.1679 56.3284 38.8768 55.6129 36.2442C55.4566 35.4111 54.9631 34.6946 54.2476 34.2614C52.3065 33.2534 49.5924 35.5028 47.0756 35.5028ZM53.5978 35.5111C53.9597 35.7777 54.1982 36.1776 54.2722 36.6191C54.7904 38.2936 54.9796 40.0515 54.8233 41.801H41.0963C40.8742 40.2764 41.2443 37.7938 42.1326 34.7696C43.4156 36.1359 45.2086 36.9107 47.0674 36.9024C49.6993 36.9024 52.471 34.9196 53.5978 35.5111Z" fill="#CB997E"/>
</svg>
