<svg width="160" height="161" viewBox="0 0 160 161" fill="none" xmlns="http://www.w3.org/2000/svg">
<g clip-path="url(#clip0)">
<path d="M76 73.6187L88.0012 80.6187L76 87.6187V73.6187Z" fill="white"/>
</g>
<path d="M6.93327 72.8452C7.37772 72.8452 7.82216 73.0229 8.08883 73.2894C8.44438 73.5559 8.62216 73.9113 8.79994 74.3555C8.97772 74.7997 9.06661 75.2439 8.97772 75.7769L8.71105 79.9524L-6.10352e-05 79.3305L0.266606 74.7997C0.266606 74.3555 0.444383 74.0001 0.622161 73.7336C0.888828 73.4671 1.15549 73.2005 1.51105 73.1117C1.86661 73.0229 2.22216 72.934 2.57772 72.934C3.02216 72.934 3.37772 73.1117 3.73327 73.2894C4.17772 73.5559 4.44438 73.9113 4.62216 74.3555C4.79994 73.8224 5.06661 73.4671 5.51105 73.2005C5.86661 72.934 6.39994 72.7564 6.93327 72.8452ZM1.24438 78.0867L3.82216 78.2644L3.99994 75.6881C3.99994 75.4215 3.99994 75.2439 3.91105 75.0662C3.82216 74.8885 3.64438 74.7108 3.46661 74.622C3.28883 74.4443 3.02216 74.3555 2.75549 74.3555C2.48883 74.3555 2.31105 74.3555 2.04438 74.4443C1.77772 74.5331 1.77772 74.7108 1.59994 74.7997C1.51105 74.9773 1.42216 75.155 1.42216 75.4215L1.24438 78.0867ZM6.57772 74.2666C6.31105 74.2666 6.13327 74.2666 5.86661 74.3555C5.68883 74.4443 5.51105 74.622 5.33327 74.7108C5.15549 74.8885 5.15549 75.0662 5.06661 75.3327L4.88883 78.2644L7.55549 78.4421L7.73327 75.5992C7.73327 75.3327 7.73327 75.155 7.55549 74.8885C7.37772 74.622 7.28883 74.5331 7.11105 74.4443C7.02216 74.2666 6.84438 74.2666 6.57772 74.2666Z" fill="white"/>
<path d="M9.68883 69.2028L1.06661 67.3371L1.33327 66.0045L8.08883 67.426L2.39994 61.3849L2.66661 60.0523L11.2888 61.9179L11.0222 63.2505L4.35549 61.9179L9.95549 67.8702L9.68883 69.2028Z" fill="white"/>
<path d="M13.8666 59.0751L11.1111 58.009L11.2888 57.6536C11.3777 57.4759 11.3777 57.2094 11.2888 57.0318C11.1999 56.8541 10.9333 56.5876 10.6666 56.321C10.3111 56.0545 9.86661 55.788 9.33327 55.4326C8.71105 55.0773 7.99994 54.7219 7.11105 54.3666L4.79994 53.3893L6.93327 48.1478L13.9555 50.9907L14.3999 49.9246L17.1555 50.9907L16.7111 52.1456L15.1111 51.4349L12.7999 57.2983L14.3999 57.9202L13.8666 59.0751ZM11.9999 55.9657L13.511 52.2344L7.55549 49.8358L6.48883 52.5898L7.82216 53.1228C8.71105 53.4782 9.42216 53.8335 10.0444 54.1889C10.6666 54.5442 11.1111 54.8108 11.3777 55.0773C11.6444 55.3438 11.911 55.6992 11.9999 55.9657Z" fill="white"/>
<path d="M19.2888 41.2183L20.3555 41.8402L17.2444 47.0817L9.59994 42.6398L12.6222 37.4871L13.6888 38.1089L11.3777 42.0179L13.5111 43.2616L15.5555 39.8857L16.5333 40.5076L14.4888 43.8835L16.7999 45.2161L19.2888 41.2183Z" fill="white"/>
<path d="M24.7111 36.1545C24.2666 36.6875 23.8222 37.0429 23.3777 37.2205C22.8444 37.4871 22.3111 37.5759 21.7777 37.5759C21.2444 37.5759 20.6222 37.4871 20.0888 37.3094C19.5555 37.1317 19.0222 36.8652 18.5777 36.5098C18.1333 36.1545 17.7777 35.7103 17.5111 35.1772C17.2444 34.6442 17.0666 34.1112 16.9777 33.5781C16.8888 33.0451 16.8888 32.4232 17.0666 31.8902C17.2444 31.3571 17.4222 30.8241 17.8666 30.3799C18.2222 29.8469 18.7555 29.4915 19.2888 29.3138C19.8222 29.0473 20.3555 28.9585 20.8888 28.9585C21.4222 28.9585 22.0444 29.0473 22.5777 29.225C23.111 29.4027 23.6444 29.6692 23.9999 30.0245C24.4444 30.3799 24.7999 30.8241 25.1555 31.3571C25.4222 31.8902 25.5999 32.4232 25.6888 32.9562C25.7777 33.4893 25.7777 34.1112 25.5999 34.6442C25.3333 35.1772 25.0666 35.6214 24.7111 36.1545ZM19.4666 35.5326C19.8222 35.7991 20.1777 35.9768 20.5333 36.1545C20.8888 36.3321 21.3333 36.3321 21.6888 36.3321C22.0444 36.3321 22.4888 36.2433 22.8444 36.0656C23.1999 35.8879 23.5555 35.6214 23.8222 35.3549C24.0888 34.9995 24.2666 34.6442 24.3555 34.2888C24.4444 33.9335 24.4444 33.4893 24.3555 33.1339C24.2666 32.7786 24.0888 32.4232 23.9111 32.0678C23.7333 31.7125 23.4666 31.446 23.111 31.1795C22.7555 30.9129 22.3999 30.7353 22.0444 30.5576C21.6888 30.3799 21.2444 30.3799 20.8888 30.3799C20.5333 30.3799 20.0888 30.4687 19.7333 30.6464C19.3777 30.8241 19.1111 31.0906 18.8444 31.3571C18.5777 31.7125 18.3999 32.0678 18.3111 32.4232C18.2222 32.7786 18.2222 33.2228 18.3111 33.5781C18.3999 33.9335 18.5777 34.2888 18.7555 34.6442C18.8444 34.9107 19.111 35.2661 19.4666 35.5326Z" fill="white"/>
<path d="M36.8888 24.25C36.3555 24.6053 35.8222 24.8718 35.2888 24.9607C34.7555 25.0495 34.1333 25.0495 33.5999 24.9607C33.0666 24.8718 32.5333 24.6053 31.9999 24.3388C31.5555 24.0723 31.111 23.6281 30.7555 23.1839C30.3999 22.7397 30.1333 22.2067 29.9555 21.6736C29.7777 21.1406 29.7777 20.5187 29.7777 19.9857C29.8666 19.4526 29.9555 18.9196 30.2222 18.3866C30.4888 17.8535 30.8444 17.4093 31.3777 17.054C31.911 16.6986 32.4444 16.4321 32.9777 16.3433C33.511 16.2544 34.1333 16.2544 34.6666 16.3433C35.1999 16.4321 35.7333 16.6986 36.2666 16.9651C36.711 17.2316 37.1555 17.6758 37.5111 18.0312C37.8666 18.4754 38.1333 19.0084 38.3111 19.5415C38.4888 20.0745 38.4888 20.6964 38.4888 21.2294C38.3999 21.7625 38.3111 22.2955 38.0444 22.8285C37.6888 23.4504 37.3333 23.8946 36.8888 24.25ZM31.9111 22.4732C32.1777 22.8285 32.4444 23.0951 32.7999 23.2727C33.1555 23.5393 33.511 23.6281 33.8666 23.7169C34.2222 23.8058 34.6666 23.8058 35.0222 23.7169C35.3777 23.6281 35.7333 23.4504 36.0888 23.1839C36.4444 22.9174 36.7111 22.562 36.8888 22.2067C37.0666 21.8513 37.1555 21.4959 37.1555 21.0517C37.1555 20.6964 37.0666 20.2522 36.9777 19.8968C36.7999 19.5415 36.6222 19.1861 36.4444 18.8308C36.1777 18.4754 35.911 18.2089 35.5555 18.0312C35.1999 17.8535 34.8444 17.6758 34.4888 17.587C34.1333 17.4982 33.6888 17.4982 33.3333 17.587C32.9777 17.6758 32.6222 17.8535 32.2666 18.12C31.911 18.3866 31.6444 18.7419 31.4666 19.0973C31.2888 19.4526 31.1999 19.808 31.1999 20.2522C31.1999 20.6075 31.2888 21.0517 31.3777 21.4071C31.4666 21.7625 31.6444 22.1178 31.9111 22.4732Z" fill="white"/>
<path d="M51.1999 6.03786L54.7555 14.1223L53.5111 14.6553L51.9111 11.1017L47.8222 12.8785L49.4222 16.4321L48.1777 16.9651L44.6222 8.88073L45.8666 8.34769L47.3777 11.7236L51.4666 9.9468L49.9555 6.5709L51.1999 6.03786Z" fill="white"/>
<path d="M58.9333 3.6392L60.1777 3.28384L65.7777 10.924L64.3555 11.2794L62.9333 9.14725L59.5555 10.0356L59.2888 12.612L57.8666 13.0562L58.9333 3.6392ZM62.3111 8.34769L59.9999 4.97179L59.6444 9.05841L62.3111 8.34769Z" fill="white"/>
<path d="M68.9777 10.391L68.1777 1.59589L69.5999 1.50705L70.3111 9.05841L73.3333 8.79189L72.6222 1.24053L74.0444 1.15169L74.6666 8.61421L77.6888 8.34769L76.9777 0.796331L78.3999 0.618652L79.1999 9.41377L68.9777 10.391Z" fill="white"/>
<path d="M89.5999 8.96957L89.511 10.2133L83.4666 9.68028L84.2666 0.885171L90.2222 1.41821L90.1333 2.66196L85.5999 2.3066L85.4222 4.79411L89.3333 5.14947L89.2444 6.30438L85.3333 5.94902L85.0666 8.61421L89.5999 8.96957Z" fill="white"/>
<path d="M100.267 12.5231L101.778 6.39322L98.1333 10.391L97.3333 10.2133L95.9999 4.97179L94.4888 11.1017L93.1555 10.7464L95.2888 2.21776L96.7111 2.57312L98.2222 8.52537L102.4 3.99455L103.822 4.34991L101.689 12.8785L100.267 12.5231Z" fill="white"/>
<path d="M115.644 21.0517L116.444 19.5415L110.578 16.3433L114.756 8.61421L116 9.23609L112.355 15.8991L115.822 17.7647L119.467 11.1017L120.711 11.8124L117.067 18.4754L118.044 19.0084L116.622 21.5848L115.644 21.0517Z" fill="white"/>
<path d="M126.133 24.9607L125.422 25.9379L120.622 22.2955L125.955 15.2772L130.667 18.8308L129.955 19.808L126.311 17.054L124.8 19.0973L127.911 21.4959L127.2 22.3843L124.089 19.9857L122.489 22.1178L126.133 24.9607Z" fill="white"/>
<path d="M139.555 27.2705L133.244 33.4893L132.267 32.512L135.022 29.758L131.911 26.5598L129.156 29.3138L128.178 28.3366L134.489 22.1178L135.467 23.0951L132.8 25.6714L135.911 28.8696L138.578 26.2933L139.555 27.2705Z" fill="white"/>
<path d="M145.955 37.5759L144.267 35.1772L138.133 39.6192L137.333 38.4643L143.467 34.0223L141.778 31.6236L142.756 30.9129L147.022 36.7763L145.955 37.5759Z" fill="white"/>
<path d="M141.511 44.9496L149.333 40.863L151.111 44.15C151.289 44.5054 151.378 44.8607 151.378 45.2161C151.378 45.5715 151.289 45.9268 151.2 46.2822C151.111 46.6375 150.933 46.904 150.667 47.2594C150.4 47.5259 150.133 47.7924 149.867 47.8813C149.422 48.1478 148.978 48.2366 148.444 48.2366C147.911 48.2366 147.467 48.1478 147.022 47.8813C146.578 47.6148 146.222 47.3482 146.044 46.8152L144.889 44.6831L142.133 46.1045L141.511 44.9496ZM145.955 44.15L147.022 46.1933C147.111 46.4599 147.289 46.6375 147.555 46.7264C147.733 46.8152 148 46.904 148.267 46.904C148.533 46.904 148.8 46.8152 149.067 46.6375C149.333 46.4599 149.6 46.2822 149.689 46.0157C149.867 45.7491 149.955 45.5715 149.955 45.3049C149.955 45.0384 149.955 44.8607 149.778 44.5942L148.711 42.6398L145.955 44.15Z" fill="white"/>
<path d="M149.156 59.1639L148 59.6081L145.955 53.9224L154.222 50.9018L156.267 56.4987L155.111 56.9429L153.6 52.6786L151.2 53.567L152.533 57.2983L151.467 57.6536L150.133 53.9224L147.555 54.8108L149.156 59.1639Z" fill="white"/>
<path d="M154.756 70.3577C154.578 70.3577 154.311 70.3577 154.133 70.2688C153.955 70.18 153.778 70.0912 153.6 69.9135C153.422 69.7358 153.333 69.5581 153.333 69.2916C153.333 69.1139 153.333 68.8474 153.422 68.6697C153.511 68.4921 153.6 68.3144 153.778 68.1367C153.955 67.959 154.133 67.8702 154.4 67.8702C154.578 67.8702 154.844 67.8702 155.022 67.959C155.2 68.0479 155.378 68.1367 155.555 68.3144C155.733 68.4921 155.822 68.6697 155.822 68.8474C155.822 69.1139 155.822 69.2916 155.733 69.4693C155.644 69.647 155.555 69.8246 155.378 70.0023C155.2 70.2688 154.933 70.3577 154.756 70.3577Z" fill="white"/>
<path d="M153.156 87.7702C152.711 87.7702 152.267 87.5926 151.911 87.326C151.555 87.0595 151.378 86.7042 151.2 86.26C151.022 85.8158 150.933 85.3716 151.022 84.8385L151.2 80.6631L160 81.0184L159.822 85.5492C159.822 85.9934 159.644 86.3488 159.467 86.6153C159.2 86.8818 158.933 87.1484 158.578 87.2372C158.222 87.4149 157.867 87.4149 157.511 87.4149C157.067 87.4149 156.711 87.2372 156.355 87.0595C156 86.793 155.733 86.5265 155.555 86.0823C155.378 86.6153 155.111 86.9707 154.667 87.2372C154.222 87.6814 153.689 87.7702 153.156 87.7702ZM153.511 86.3488C153.778 86.3488 153.955 86.3488 154.222 86.26C154.4 86.1711 154.578 85.9934 154.756 85.8158C154.933 85.6381 154.933 85.4604 154.933 85.1939L155.022 82.2622L152.355 82.1733L152.267 85.0162C152.267 85.2827 152.267 85.4604 152.444 85.7269C152.533 85.9046 152.711 86.0823 152.889 86.1711C153.067 86.26 153.244 86.3488 153.511 86.3488ZM158.756 82.4399L156.178 82.351L156.089 84.9274C156.089 85.1939 156.089 85.3716 156.267 85.5492C156.355 85.7269 156.533 85.9046 156.711 85.9934C156.889 86.0823 157.156 86.1711 157.333 86.1711C157.6 86.1711 157.778 86.1711 158.044 86.0823C158.222 85.9934 158.4 85.9046 158.489 85.7269C158.578 85.5492 158.667 85.3716 158.667 85.105L158.756 82.4399Z" fill="white"/>
<path d="M150.4 91.4127L159.022 93.1894L158.756 94.522L152 93.1894L157.778 99.1417L157.511 100.385L148.889 98.6087L149.156 97.2761L155.733 98.6087L150.044 92.6564L150.4 91.4127Z" fill="white"/>
<path d="M146.4 101.54L149.156 102.606L148.978 102.962C148.889 103.139 148.889 103.406 148.978 103.584C149.067 103.85 149.333 104.028 149.6 104.294C149.956 104.561 150.4 104.827 150.933 105.094C151.555 105.36 152.267 105.716 153.156 106.071L155.467 107.048L153.422 112.379L146.311 109.625L145.867 110.691L143.111 109.625L143.555 108.47L145.156 109.092L147.467 103.228L145.867 102.606L146.4 101.54ZM148.355 104.65L146.933 108.47L152.889 110.78L153.955 108.026L152.622 107.493C151.733 107.137 151.022 106.782 150.4 106.515C149.778 106.249 149.333 105.893 149.067 105.627C148.622 105.272 148.444 104.916 148.355 104.65Z" fill="white"/>
<path d="M141.156 119.486L140.089 118.864L143.111 113.623L150.756 117.976L147.822 123.128L146.756 122.506L148.978 118.598L146.756 117.354L144.8 120.819L143.822 120.285L145.778 116.821L143.467 115.488L141.156 119.486Z" fill="white"/>
<path d="M135.822 124.639C136.178 124.106 136.711 123.75 137.156 123.484C137.689 123.217 138.222 123.128 138.756 123.04C139.289 123.04 139.911 123.04 140.444 123.217C140.978 123.395 141.511 123.661 141.955 124.017C142.4 124.372 142.755 124.816 143.111 125.349C143.378 125.882 143.555 126.415 143.644 126.948C143.733 127.481 143.733 128.103 143.555 128.636C143.467 129.169 143.2 129.702 142.756 130.147C142.4 130.68 141.867 131.035 141.422 131.302C140.889 131.568 140.355 131.657 139.822 131.746C139.289 131.746 138.667 131.657 138.133 131.568C137.6 131.39 137.067 131.124 136.622 130.769C136.178 130.413 135.822 129.969 135.467 129.436C135.2 128.903 135.022 128.37 134.933 127.837C134.844 127.304 134.844 126.682 135.022 126.149C135.2 125.616 135.467 125.172 135.822 124.639ZM141.067 125.261C140.711 124.994 140.355 124.816 140 124.639C139.644 124.461 139.2 124.461 138.844 124.461C138.489 124.461 138.044 124.55 137.689 124.727C137.333 124.905 137.067 125.172 136.8 125.527C136.533 125.882 136.355 126.238 136.267 126.593C136.178 126.948 136.178 127.393 136.267 127.748C136.355 128.103 136.533 128.459 136.711 128.814C136.889 129.169 137.244 129.436 137.511 129.702C137.867 129.969 138.222 130.147 138.578 130.324C138.933 130.502 139.378 130.502 139.733 130.502C140.089 130.502 140.533 130.413 140.889 130.236C141.244 130.058 141.511 129.791 141.778 129.525C142.044 129.169 142.222 128.814 142.311 128.459C142.4 128.103 142.4 127.659 142.311 127.304C142.222 126.948 142.044 126.593 141.867 126.238C141.689 125.794 141.422 125.438 141.067 125.261Z" fill="white"/>
<path d="M123.822 136.632C124.355 136.277 124.889 136.01 125.422 135.832C125.955 135.744 126.578 135.744 127.111 135.832C127.644 135.921 128.178 136.099 128.711 136.454C129.244 136.721 129.6 137.076 129.955 137.52C130.311 137.965 130.578 138.498 130.756 139.031C130.933 139.564 130.933 140.186 130.933 140.719C130.933 141.252 130.755 141.785 130.489 142.318C130.222 142.851 129.867 143.295 129.422 143.65C128.889 144.006 128.355 144.272 127.822 144.45C127.289 144.539 126.667 144.539 126.133 144.45C125.6 144.361 125.067 144.094 124.533 143.828C124.089 143.561 123.644 143.206 123.289 142.762C122.933 142.318 122.667 141.785 122.489 141.252C122.311 140.719 122.222 140.186 122.311 139.564C122.311 139.031 122.489 138.498 122.756 137.965C122.933 137.432 123.289 136.987 123.822 136.632ZM128.8 138.409C128.533 138.053 128.267 137.787 127.911 137.609C127.555 137.343 127.2 137.254 126.844 137.165C126.489 137.076 126.044 137.076 125.689 137.165C125.333 137.254 124.978 137.432 124.622 137.698C124.267 137.965 124 138.32 123.822 138.675C123.644 139.031 123.555 139.386 123.555 139.83C123.555 140.186 123.644 140.63 123.733 140.985C123.911 141.34 124.089 141.696 124.267 142.051C124.533 142.407 124.8 142.673 125.155 142.851C125.511 143.117 125.867 143.206 126.222 143.295C126.578 143.384 127.022 143.384 127.378 143.295C127.733 143.206 128.089 143.028 128.444 142.762C128.8 142.495 129.067 142.14 129.244 141.785C129.422 141.429 129.511 141.074 129.511 140.63C129.511 140.274 129.422 139.83 129.333 139.475C129.244 139.119 128.978 138.764 128.8 138.409Z" fill="white"/>
<path d="M109.689 155.022L106.044 146.937L107.289 146.315L108.889 149.869L112.978 148.003L111.378 144.45L112.622 143.917L116.267 152.001L115.022 152.534L113.511 149.158L109.422 151.024L110.933 154.4L109.689 155.022Z" fill="white"/>
<path d="M101.955 157.598L100.711 157.953L95.0222 150.313L96.4444 149.958L97.9555 152.001L101.333 151.024L101.511 148.448L102.933 148.092L101.955 157.598ZM98.5777 152.89L100.978 156.266L101.333 152.179L98.5777 152.89Z" fill="white"/>
<path d="M91.8222 151.024L92.6222 159.819L91.1999 159.908L90.4888 152.357L87.4666 152.623L88.1777 160.174L86.7555 160.263L86.0444 152.712L83.0222 152.978L83.7333 160.53L82.3111 160.619L81.511 151.824L91.8222 151.024Z" fill="white"/>
<path d="M71.2888 152.623L71.3777 151.379L77.4222 151.824L76.7999 160.619L70.8444 160.174L70.9333 158.931L75.4666 159.286L75.6444 156.799L71.7333 156.532L71.8222 155.377L75.7333 155.644L75.911 152.978L71.2888 152.623Z" fill="white"/>
<path d="M60.5333 149.158L59.111 155.288L62.7555 151.29L63.5555 151.468L64.9777 156.71L66.3999 150.58L67.7333 150.935L65.6888 159.553L64.2666 159.197L62.6666 153.245L58.5777 157.776L57.1555 157.42L59.1999 148.803L60.5333 149.158Z" fill="white"/>
<path d="M45.0666 140.719L44.2666 142.229L50.1333 145.338L46.0444 153.156L44.7999 152.534L48.3555 145.782L44.8888 143.917L41.3333 150.669L40.0888 150.047L43.6444 143.295L42.6666 142.762L43.9999 140.186L45.0666 140.719Z" fill="white"/>
<path d="M34.5777 137.076L35.2888 136.099L40.1777 139.653L34.9333 146.76L30.1333 143.206L30.8444 142.229L34.4888 144.894L35.9999 142.851L32.7999 140.541L33.5111 139.653L36.711 141.962L38.3111 139.83L34.5777 137.076Z" fill="white"/>
<path d="M21.0666 134.855L27.2888 128.548L28.2666 129.525L25.5111 132.279L28.7111 135.388L31.4666 132.634L32.4444 133.611L26.2222 139.919L25.2444 138.942L27.8222 136.277L24.6222 133.167L22.0444 135.832L21.0666 134.855Z" fill="white"/>
<path d="M14.5777 124.639L16.3555 127.037L22.4888 122.506L23.2888 123.661L17.1555 128.192L18.9333 130.591L17.9555 131.302L13.5999 125.438L14.5777 124.639Z" fill="white"/>
<path d="M18.9333 117.176L11.1999 121.44L9.42216 118.153C9.24438 117.798 9.15549 117.443 9.15549 117.087C9.15549 116.732 9.15549 116.377 9.33327 116.021C9.42216 115.666 9.59994 115.399 9.86661 115.044C10.1333 114.777 10.3999 114.511 10.6666 114.333C11.1111 114.067 11.5555 113.978 12.0888 113.978C12.6222 113.978 13.0666 114.067 13.5111 114.244C13.9555 114.422 14.311 114.777 14.5777 115.31L15.7333 117.443L18.3999 115.932L18.9333 117.176ZM14.4888 118.065L13.4222 116.021C13.3333 115.755 13.1555 115.577 12.8888 115.488C12.6222 115.399 12.4444 115.31 12.1777 115.399C11.911 115.399 11.6444 115.488 11.3777 115.666C11.1111 115.844 10.8444 116.021 10.7555 116.288C10.6666 116.554 10.4888 116.732 10.4888 116.998C10.4888 117.265 10.4888 117.443 10.6666 117.709L11.7333 119.664L14.4888 118.065Z" fill="white"/>
<path d="M11.1111 103.051L12.2666 102.606L14.3999 108.292L6.13327 111.402L3.99994 105.805L5.15549 105.36L6.75549 109.625L9.06661 108.736L7.64438 105.005L8.71105 104.561L10.1333 108.292L12.6222 107.315L11.1111 103.051Z" fill="white"/>
<path d="M5.42216 91.9457C5.59994 91.9457 5.86661 91.9457 6.04438 92.0345C6.22216 92.1234 6.39994 92.2122 6.57772 92.3899C6.75549 92.5676 6.84438 92.7452 6.84438 93.0118C6.84438 93.1894 6.84438 93.456 6.75549 93.6336C6.66661 93.8113 6.57772 93.989 6.39994 94.1667C6.22216 94.3444 6.04438 94.4332 5.77772 94.4332C5.59994 94.4332 5.33327 94.4332 5.15549 94.3444C4.97772 94.2555 4.79994 94.1667 4.62216 93.989C4.44438 93.8113 4.35549 93.6336 4.35549 93.456C4.35549 93.1894 4.35549 93.0118 4.44438 92.8341C4.53327 92.6564 4.62216 92.4787 4.79994 92.301C4.97772 92.1234 5.15549 92.0345 5.42216 91.9457Z" fill="white"/>
<defs>
<clipPath id="clip0">
<rect width="14" height="14" fill="white" transform="translate(75 73.6187)"/>
</clipPath>
</defs>
</svg>
